/* XPM */
static char *f35d822560db49568d5f85ca30fff243[] = {
/* columns rows colors chars-per-pixel */
"64 64 232 2 ",
"   c #1E0B28",
".  c #2E0E23",
"X  c #23142A",
"o  c #2B152D",
"O  c #2B1B2B",
"+  c #321225",
"@  c #351A2B",
"#  c #361B32",
"$  c #34222F",
"%  c #3D2235",
"&  c #382931",
"*  c #382C33",
"=  c #551B1D",
"-  c #5D251D",
";  c #612D1D",
":  c #7E2419",
">  c #7F2A18",
",  c #451F2C",
"<  c #5B2A2B",
"1  c #482836",
"2  c #542C3A",
"3  c #463737",
"4  c #473B39",
"5  c #54363C",
"6  c #762E26",
"7  c #673439",
"8  c #4B453B",
"9  c #56483B",
"0  c #55533D",
"q  c #5B543D",
"w  c #5E5C3E",
"e  c #6F463F",
"r  c #7B463B",
"t  c #62563E",
"y  c #635D3E",
"u  c #5F603D",
"i  c #63623E",
"p  c #69653E",
"a  c #67683F",
"s  c #6C6B3F",
"d  c #726B3E",
"f  c #4D3747",
"g  c #583843",
"h  c #683C47",
"j  c #733E47",
"k  c #595842",
"l  c #514255",
"z  c #694746",
"x  c #77434B",
"c  c #635D42",
"v  c #6A5947",
"b  c #725052",
"n  c #5F6140",
"m  c #656541",
"M  c #696642",
"N  c #666942",
"B  c #6C6C43",
"V  c #6C6E48",
"C  c #746747",
"Z  c #726E42",
"A  c #6E7145",
"S  c #6E7349",
"D  c #747445",
"F  c #7A7544",
"G  c #767947",
"H  c #7C7A46",
"J  c #737549",
"K  c #7A7749",
"L  c #757A4A",
"P  c #7B7D49",
"I  c #7A7D4A",
"U  c #786D58",
"Y  c #87301C",
"T  c #AD3414",
"R  c #AF3D14",
"E  c #B03613",
"W  c #973523",
"Q  c #CB3D11",
"!  c #B94A14",
"~  c #864A3D",
"^  c #AF462C",
"/  c #BC572B",
"(  c #BA5737",
")  c #D6450E",
"_  c #DB4C0E",
"`  c #DC520E",
"'  c #CC4311",
"]  c #CC4A10",
"[  c #D74813",
"{  c #D44D13",
"}  c #C75212",
"|  c #DD5612",
" . c #E2560E",
".. c #E45B0E",
"X. c #E95D0E",
"o. c #E35912",
"O. c #CA6513",
"+. c #E4640E",
"@. c #EB630E",
"#. c #ED690E",
"$. c #F06B0E",
"%. c #EF750E",
"&. c #F4730E",
"*. c #F57B0E",
"=. c #F97D0E",
"-. c #EF6E12",
";. c #F16B10",
":. c #E97419",
">. c #F47413",
",. c #D75D26",
"<. c #C45734",
"1. c #DC662F",
"2. c #E46928",
"3. c #EB7728",
"4. c #F17A2A",
"5. c #E5763A",
"6. c #844D4F",
"7. c #81564D",
"8. c #935048",
"9. c #874F52",
"0. c #895A58",
"q. c #985958",
"w. c #A55A4D",
"e. c #86694D",
"r. c #817644",
"t. c #827C46",
"y. c #887E47",
"u. c #827E49",
"i. c #8B7F48",
"p. c #886B51",
"a. c #996659",
"s. c #8E7757",
"d. c #967D59",
"f. c #B46A4D",
"g. c #A7635C",
"h. c #B06E55",
"j. c #8F6E68",
"k. c #886B6D",
"l. c #917472",
"z. c #A36162",
"x. c #AC6961",
"c. c #AE7068",
"v. c #B77A64",
"b. c #D0734A",
"n. c #D77E52",
"m. c #E37944",
"M. c #C17E67",
"N. c #77804E",
"B. c #7D824C",
"V. c #7F884F",
"C. c #758051",
"Z. c #7D8551",
"A. c #7E8952",
"S. c #F8840E",
"D. c #FB8A0E",
"F. c #FC930F",
"G. c #F88111",
"H. c #FC8E14",
"J. c #FB9713",
"K. c #FE9314",
"L. c #FFA21E",
"P. c #F58429",
"I. c #FB9927",
"U. c #F99136",
"Y. c #FDA629",
"T. c #FAAA38",
"R. c #838047",
"E. c #83834B",
"W. c #8A844C",
"Q. c #85894E",
"!. c #8A8A4E",
"~. c #918C4E",
"^. c #828550",
"/. c #848B52",
"(. c #8A8C51",
"). c #948C52",
"_. c #859257",
"`. c #8A9154",
"'. c #939654",
"]. c #B5825E",
"[. c #B98B63",
"{. c #B38F6F",
"}. c #CD8B5A",
"|. c #D98254",
" X c #E9884A",
".X c #F6934D",
"XX c #E7875B",
"oX c #EA945B",
"OX c #F29857",
"+X c #FCAF4B",
"@X c #F6A455",
"#X c #D6996A",
"$X c #C79071",
"%X c #D39B77",
"&X c #E99865",
"*X c #F09F64",
"=X c #CDA27A",
"-X c #DAA371",
";X c #F4A76B",
":X c #E8AC73",
">X c #F4AB70",
",X c #F9B877",
"<X c #FBC27C",
"1X c #B58D85",
"2X c #B29B95",
"3X c #BAA297",
"4X c #BCB0AA",
"5X c #C6978B",
"6X c #C69B94",
"7X c #D8A888",
"8X c #DBB29D",
"9X c #E7A683",
"0X c #EEB88D",
"qX c #F6BC85",
"wX c #EDB799",
"eX c #C8AEA6",
"rX c #EDC889",
"tX c #F8C686",
"yX c #F3C696",
"uX c #D7C3B7",
"iX c #E6C3AE",
"pX c #F4CBAB",
"aX c #FCD9AA",
"sX c #E8C9B5",
"dX c #F7D6B1",
"fX c #EAD4C5",
"gX c #F2DBC9",
"hX c #F8E4C6",
"jX c #F7EAD4",
"kX c #FEF2D6",
"lX c #FEFBE5",
"zX c #FFFEE8",
/* pixels */
"u.I I D J L I E.J B L D A Z B.E.R.I J G D L n m m m ^.I F I D D I D I I A J D L J A B B B.I u.H F W.B.E.^.J L I `.K I F D L I I ",
"F I N D D B D J D D G B.D G _.y.E.Q.B.B B B w m m V L L L L J B.H G R.H D D A a A A m m D I t.t.!.E.H u.V.B L H L B I I G J B.B.",
"B.J V V B S p F D D L D I L Q.(.V.H D B B m i m J B.L D J B.A G E.I B.u.I D B B D B N M B I E.u.E.!.R.I B.D L D D L I Q.Z B D L ",
"G Z B N N S D I I I Z.D J G F E.R.R.D L L J J V L L I I J J L I I J J L B.I D J m i i V L B.Q.!.E.!.Q.G R.D D D I J A B.E.B.D Z ",
"I L G D A J D D D A B D D G H t.t.H G B.L G N.S S L V.Q.I m Z L D B B L L F t.D A B N m m I Q.!.W.!.Q.E.R.F F I J D D L D F D J ",
"H D J G I I u.I J a s H F I G H H H L L B.I S J V L B.R.E.D K I B.K B I D u.Q.E.I I D i N I u.u.t.H I I E.Q.F G D I I I J J G R.",
"r.D L D D D I J a i J B.G I L H t.Q.G J J L G L Z.L B Q.I B.Q.B.B L G D E.E.H I /.R.D M J L D G G D I u.R.B.t.G F F I E.L G y.t.",
"E.u.R.u.H F Z A m s F J Z I u.u.J V.J I Z./.J L C.L D B.I B.I J p B J F Q.^.F I Q.Q.D D L I B.D Z H F G E.R.u.!.E.H u.H t.F t.I ",
"y.r.H !.E.D r.u.B.D D J B B D S J L I I ^./.S S J V N A I L L B.D D D y.t.B.R.!.Q.Q.B B i L B.D J G D I W.W.R.!.E.H B.I u.H F G ",
"F t.R.!.W.W.W.H D F F B N D B m B L D Z B.I J J J B i B D J Z.L I B.I !.t.u./.F R.Q.J D D G D G G H G R.B.F A R.H H B./.G B B Z ",
"D u.t.t.F r.u.H Z G D B N I D Z m D I G E.L J J A i M V D D I G D B.I y.I ^.Q.!.B.Z.D I E.D H L D I J u.D D I E.F R.Q.L J S B B ",
"L D D t.E.t.R.H F I J D B G I B.D F D D G L B G A J D A B B G t.F G J I A I W.B.D B I Z.I D u.H I (.Q.I H G D Q.I u.L I A V m B ",
"!.I G Q.(.!.E.H D D Z B D F I I D I J m i B m D B G J D D B I E.u.G G B B B.B.D D D I I Z p B H u.E.I d D D A B.I B V L J J J G ",
"I D G Q.(.u.I t.I u.E.B.F F G D D B S A J V m B D J J I J F I Q.D D I Z D D B.I /.E.!.G D B.D D F I I I D D p D J B N J B B.Q.I ",
"D F D D E.D G I u.(.W.R.F D G J G B A D S J D D I L G B.B.L L I a D G G D D R.B./.t.F Q.E.I I R.G J I G Z m D D L D m m m B.I B.",
"I r.I H H F u.I R.H G B.F F B.A B D V D D A D Z H t.u.L Z v c v v e.e.e.e.p.d.p.p.t.u.!.y.F I D B D I L B M i m B D V w m D J D ",
"E.D I B.K F Q.H H B.D G I G I D B Z B D B.D F G D r.H J v h h h x q.z.z.z.z.z.z.a.s.E.u.R.t.L m y D D m w M m i m B m A J L I G ",
"D B S B G G !.t.E.(.B.F I H E.D B m B L I H !.F i c q q v 7.0.j.c.1X5X5X5X6X6X6X1Xj.C K I I I m B J J c m M m B J J B D D D G Q.",
"D D B B J I B.B.H L B.B.D B.E.I D A B D G R.(.Z 9 $ $ 1 b {.$X5X8XsXfXfXgXjXjXjXuXl.z C I J D S B p i i B I D N A D I D G G G H ",
"L H I I S I V.H F I I H G I B.I D J V D H E.M q 9 7 e 7.].=X=X$X7XpXhXjXlXlXzXlXfX2Xl.U C J G A B i y i B D D B M D B.I G L D F ",
"B.H I H G D B./.Q.I D H I G H B.R.L I I G B 8 & r f.}.-X:XrX=Xa.v.0XaXkXlXzXlXjXgXfXeXj.z v B B a m i q c B B B M J L M D A D R.",
"B.u.F D D G I B.Q.F I E.I D B J I D D J m 9 & @ ~ n.*X,XtXtX-Xf.f.#XyXjXzXzXjXsXiXgXuXk.g v Z d D D m i m N N m m N i w i B J L ",
"I B.I I B.I V.I G F I L I D B B D G I D 8 $ X o ~ n.&X;X,X<X:X|.b.n.7XhXzXzXgX7X%XiXuXk.3 t G G R.I B L N A J B i s a m m B A B.",
"L Q.B.E.!.R.E.B.I H G G G F Q.F I L M q 9 5 1 2 8.n.&X;X,X,X;XoX|.b.%XdXkXlXgX7X$X5X2XU 9 y F E.u.I J V s G G L Z B V G D D J A.",
"F F Q.Q.!.R.I J J I I R.H I I G H B 4 3 p.[.a.9.f.|.&X;X>X>X;X*XoX|.&XqXaXkXhXyX#Xa.b v B D H Q.y.u.I I G I D J m i L I F D G (.",
"t.E.t.B.E.H L D D I J Z.D G L E.B q 9 z [.:XM.g.b.m. XOXOXOXOXOX Xm. XOXqXhXhXtX}.e & c t.H B.W.Q.H I F R.B.G S S V V I B.G I Q.",
"F u.H B.R.E.Q.u.A I B S D H G H 3 9 s.{.%X#Xv.g.( ,.2.3.3.4.4.3.3.2.2.2.XXpXpXoX/ < @ t I R.Q.E.H D L B.Q.G I B A J p D H H H H ",
"I !.E.L R.I H F F D A A G E.B.F O 3 {.rX-XM.a.8.^ { ` ..X.@.@.@.@.@..._ m.wXwXm.R = O w (.H Q.(.u.I G H F r.G D A J B D G E.Q.R.",
"Q.E.I A J I I D B B m G u.F B.S X 3 [.,X$Xg.j 2 W Q _ ` _ _  .@.$.$.@.o.5.9X9X1.T = O 0 I H H !.t.u.H E.R.F B F D J J D F H Q.I ",
"R.R.G L B.F Z N m m J H B A B w X 1 ].:Xv.x 1 + : Q ) _ ) )  .$.&.&.$.@.5.*X&X1.T = O w B.R.E.E.t.F u./.I M B J I B.Z B F H R.B.",
"B Q.D F I G I J A B D I D V p m X 1 g.$X7.1 o . > ' _  ._ _ +.S.D.G.&.#.3.@XOX1.R = O 0 I !.Q.E.E.E.y.R.F D Z B A J D D H H E.I ",
"I Q.G G D I B.B B B M D B Z J w X % a.v.h o   . > ]  .X. .` -.J.J.H.*.@.3.@X@X2.R = O 0 t.t.r.Q.!.Q.t.E.H B B A D J F A J I u.E.",
"y.R.H G L I I M B B M K I F G i X % a.v.0.g # + Y ] ..@...` :.Y.Y.H.&.o.5.qXqX5.R = O q Q.H t.E.u.R.!.~.F B i m I I D J J B.I (.",
"E.R.Q.B.I L L J D J F H G E.I m X % q.M.x.9.1 + Y ] X.$.+.| 3.T.Y.K.&. .m.wXyXm.! = O q R.D I I t.t.!.E.Q.E.Z J B.B.D F R.G H /.",
"I u.R.G Z L I L D J L V.I G !.D X # 6.c.c.q.2 + > ] @.&.$.@.:.P.I.K.S.@.2.XXXX3.} - O q H F R.E.E.y.Q.B.R.y.I D D B A B.u.B.R.W.",
"B.I H B.Q.L J L V I B.S J D I B O # x q.x.g.g @ Y ] @.*.&.$.;.-.G.F.D.&.X.| o.-.O.; O q r.E.!.E.(.u.E.t.I F L B B B G F t.Q.F r.",
"D D F B.V.V.E.I I I R.S D L A V 8 4 5 h q.g.6.7 W '  .@.@. .X.@.&.S.*.@... . .X.! - O q u.E.F t.W.E.I E.Z.D D B D I I Z D H H D ",
"B D F R.Q.Q.Q.D J L D I D R.B./.D y 3 % 6.x.z.q.^ Q ) _ _ ) _ @.#.&.#. . .@.X._ E = O q Q.i.F t.u.I H I J B J I I D F G B.B./.J ",
"A B D u.V.G F D L G F t.E.E.E.B.Z.M & # x g.x.g.<.[ _ ` _ ) ..%.*.*.$.X.X.&.$.` E = O q u.r.H y.I R.F ^.J D I Q.R.D H B.F J B.L ",
"B.B F y.G D G I D I t.t.Q.I B.I I B * # j q.x.h.<.{ ` ..` ` #.F.K.D.*.@.#.=.&...R = O q H E.u.G I I D B.L L J I t.D B.B.E.I I G ",
"u.D F R.u.Z J Z.B D u.y.F R.V.V.G V 0 4 g j q.g.<.{ ..@...` :.Y.L.H.=.$.&.D.S.+.R = O q D B.E.E./.B D B.L G i B H G G I B.Q.B.B.",
"E.u.t.Q.u.F I J B Z G B.u.E.H E.Q.I I M 3 % j w.( { ..@.X.| 3.T.Y.K.=.&.*.F.D.+.R = O q G I B.D B.A D I D V B D I D J I I J Q.(.",
"Q.E.E.R.R.I S B m D G R.Q.(.Z.^./.B.I J k 3 g j ^ { +.&.#...:.I.I.K.S.&.&.S.G...R = O q I I I u.L I A A D Z F I I B.D I L B I Q.",
"I R.R.u.G B m D D D G B.^.B.Z.A.(.Q.(./.I m 4 , Y ] #.=.*.;.>.>.H.J.H.*.>.*.-.| R = O 0 V.u.Z.L I D B Z F D G D B D J B./.E.R.H ",
"Q.G D D B i Z H I I G R.H Q././.B.L Q.`.`.L 4 + 6 / 2.P.P.P.P.P.U.+X+X@X.X.X X5.( < O q I G I G Q.J a B I G I B D y.Q.G G W.!.!.",
"I R.t.y.D H I Q.!.Q.I I V.`.Q.I D G /.`.(.S 4 o 7 w.b. X XOX@X;X,XyXaXdXdXpXwX9Xv.g O t Q.J I J D B B D I I F G D u.t.G Q.W.(.B.",
"y.!.y.W.R.E.H /.u.I B.F D F F B.B.H B.Z.I B 4 # 2 x 8.w.f.v.].[.{.3X4X4X4X4X2X1Xj.g * c B.I Q.I A V.J D D I Q.E.D E.F R.!.R.Q.Q.",
"H H H t.E.H B.E.R.R.D (.E.I L B.L B.J V m k 8 * % # , 1 1 2 5 5 f f l l l l f f f 4 8 m Z I Q.Z D L D Z I u.I u.t.t.E.y.u.B.Q.E.",
"H H W.W.Q.H t.!.Q.R.u.Q./.Z.A.N.J I A m k k 0 8 & X X X X X X X X X X X X X X X O 8 k M M G I A i L D F t.W.F D F D G I B.R.Q.Q.",
"r.E.!.u.u.E.y.R.Q.H I B._./.J /./.J B.I I D F G J L V J J L J L L C.Z G B J S V J G ^.(.Q.u.N.L B J I t.R.E.t.D D G G I u.Q.B.!.",
"W.E.Q./.u.(.V.B.E.F I R././.E.E.E.B.I L Q.Q.t.B.Q._./.^./.Q._./././.Z.Z.I Q.V.I Q._.!.!.Q.R.G G A E.I u.I y.E.I I I R.I I Q.I !.",
"!.'.I ^.I Q.R.B.H G Q.(.B.t.I E.E.E.A.L I !.~././.`./.B.Z.I A.I Q.A././.^.I G I V._.B.I I I D I L N.G B.I Q.Z.G Z B H D I R.y.y.",
"(.~.!.(.E./.Q.Q.G I Q.G H !.Q.B.B.D /.Q.E.!.G E.E.Q./.L L E./.Z.Z./.`./.C.J H E./.Q.I L J J B B B D I I B I A D G D I B.B.Q.Q.W.",
"'.!.Q.Q.Q.!.Q.I t.(.!.F Q.E./.L I Z.I I B.H B.R.I R.H B.J J B./.`.Q.B.J L G I R.!.B.J A S I I J B I I B.I H L D D B Z Q.R.Q.R.!.",
"!.H B.W.!.Q.H Q.!.B.D G L D H B.B.N.L E.R.B.R.E.G u.G D D G I Q.B.I I D L L D t.!.Q.F V J Z.A.S D I F D A J V.R.D D E.Q.E.Q.Q.`.",
"B.R.R.E.y.y.Q./.R.V.I Q.B N D D L L u.I B.J u.R.G H R.S D I I I G G I Z J /.B.G I F I A J D B V D Z D I D B B.Q.F (.Q.B.I `.(./.",
"B.B.R.H I H R.G t.I I G H s D D G B.Q.B.I B B.D I B.I B A B A I G D D p B J D A D D I I I N y m B m A y.F D I D d H B.B.B.R.Q.Q.",
"V.u.R.H I B.R.E.(.Q.H !.!.E.B.J L I B.B.I B.B.D B G D B B A J F F s G B.I G L V D R.F J L A N w w i B E.Q.G D Z D R.H I B.R.Q.E.",
"F H E.B.I Q.'.!.W.Q.!.E.H I B.D I E.t.I B.Q.G I I I A m p L I A D D D J F D J m I I D L L I V w w i A I E.I R.D L H Q.I t.Q.I G ",
"I Q.u.H I !.W.E.'.(.R.B.G I L J R.G G I H Q.I D L J D u a I B B J D N i Z K A V A A p D D Z i m c B B.B.B.I Q.u.R.E.(.!.u.R.E.I ",
"G F G W.y.t.W.W.R.t.Z D D I L G I F G L F D B D L S B i m N N D D A B i B m N A N N B Z Z A u i m G H R.D D E.u.D I A./.Q.t.F G ",
"I H E.).E.F y.!.(.H G I u.Q.I I J D D D J D m G L I m J p N S J D D D B D V B B D B A D Z m m m J G !.H I D I D F D L /.R.t.F I ",
"Q.H y.E.L L E.R.Q.u.I R.H I L Q.I B I I D B m m L G G D F F I J J D G I I I I D D D D B B D B m L E.(.V.V.D G D D J m B G G Z H ",
"I F Q.Q.B.I R.I I J G I G B.L u.E.N J C.L A V S S J D D I G D F m D B.J B B.^.Z L D s D F I L B I (.E.I I G D I H D A D E.W././."
};
