/* XPM */
static char *_db8c83f7261414abf85ac3f184a5d52[] = {
/* columns rows colors chars-per-pixel */
"64 64 180 2 ",
"   c #020101",
".  c #090604",
"X  c #0C0907",
"o  c #0D0B09",
"O  c #130B07",
"+  c #140D0A",
"@  c #180F0B",
"#  c #15110F",
"$  c #1D120C",
"%  c #171514",
"&  c #1A1715",
"*  c #1B1917",
"=  c #1D1C1C",
"-  c #23160F",
";  c #27180F",
":  c #211711",
">  c #261912",
",  c #2D1C13",
"<  c #231D19",
"1  c #311E15",
"2  c #2D221C",
"3  c #342016",
"4  c #382217",
"5  c #33231B",
"6  c #3A2419",
"7  c #242323",
"8  c #2A2624",
"9  c #2E2926",
"0  c #272728",
"q  c #2C2C2C",
"w  c #3D2C24",
"e  c #322F2D",
"r  c #3A3121",
"t  c #3C3822",
"y  c #35302D",
"u  c #2F2F30",
"i  c #323232",
"p  c #3E3633",
"a  c #3A3837",
"s  c #3B3B3B",
"d  c #40271A",
"f  c #442A1C",
"g  c #4A2E1E",
"h  c #452E22",
"j  c #4F3121",
"k  c #41322A",
"l  c #523322",
"z  c #583725",
"x  c #5D3926",
"c  c #413E3C",
"v  c #603A27",
"b  c #643D29",
"n  c #683F2B",
"m  c #59482C",
"M  c #414034",
"N  c #474837",
"B  c #42403E",
"V  c #5E5C3E",
"C  c #6C422D",
"Z  c #71452E",
"A  c #674F32",
"S  c #6A4F34",
"D  c #744730",
"F  c #754830",
"G  c #7C4D33",
"H  c #6C5435",
"J  c #6C5937",
"K  c #635F3F",
"L  c #6E5939",
"P  c #715536",
"I  c #765836",
"U  c #765B39",
"Y  c #7B5D3B",
"T  c #5F603D",
"R  c #63623E",
"E  c #6A653E",
"W  c #67693F",
"Q  c #6C6B3F",
"!  c #756E3F",
"~  c #454544",
"^  c #494644",
"/  c #4B4A4A",
"(  c #5A5847",
")  c #565555",
"_  c #5B5B5B",
"`  c #625E41",
"'  c #605F5B",
"]  c #5F6140",
"[  c #656542",
"{  c #696742",
"}  c #666942",
"|  c #6B6C43",
" . c #65644B",
".. c #67684E",
"X. c #6C6C4B",
"o. c #726E42",
"O. c #726D4A",
"+. c #6E7145",
"@. c #6D734A",
"#. c #747345",
"$. c #7A7544",
"%. c #767946",
"&. c #7C7A46",
"*. c #737549",
"=. c #797649",
"-. c #757A4A",
";. c #7A7D4A",
":. c #7D7D49",
">. c #7D7E4C",
",. c #646453",
"<. c #686751",
"1. c #676955",
"2. c #6A6B54",
"3. c #64645C",
"4. c #68665B",
"5. c #6A6B5B",
"6. c #706E53",
"7. c #706C58",
"8. c #6E7154",
"9. c #6C7058",
"0. c #737452",
"q. c #747A53",
"w. c #7B7C53",
"e. c #71715A",
"r. c #646463",
"t. c #686764",
"y. c #676862",
"u. c #6B6B64",
"i. c #6C6C6C",
"p. c #6F7161",
"a. c #757461",
"s. c #71716E",
"d. c #7E7D6B",
"f. c #6F6F70",
"g. c #747474",
"h. c #777778",
"j. c #7E7E7E",
"k. c #804F34",
"l. c #845236",
"z. c #885337",
"x. c #875438",
"c. c #83603C",
"v. c #817644",
"b. c #827C46",
"n. c #827E47",
"m. c #897D47",
"M. c #827E49",
"N. c #817F6A",
"B. c #77804E",
"V. c #7E814A",
"C. c #79814D",
"Z. c #7D814D",
"A. c #7D824C",
"S. c #7F854D",
"D. c #7F884F",
"F. c #7D8351",
"G. c #7F8851",
"H. c #81814A",
"J. c #83834B",
"K. c #85824A",
"L. c #81854B",
"P. c #85854B",
"I. c #84864E",
"U. c #8A844B",
"Y. c #88864D",
"T. c #85894E",
"R. c #8A894E",
"E. c #8B8A4E",
"W. c #938D4F",
"Q. c #818451",
"!. c #848B52",
"~. c #8A8C51",
"^. c #948C52",
"/. c #849053",
"(. c #8C9255",
"). c #929353",
"_. c #979C58",
"`. c #81826E",
"'. c #7F7F80",
"]. c #808080",
/* pixels */
"M.;.;.#.*.-.;.L.*.| -.#.+.o.V.K.H.;.*.%.#.-.] [ [ [ Q.>.$.:.#.#.:.#.;.;.+.*.#.-.*.+.| | Z.;.M.&.$.K.V.K.!.*.-.;.(.%.;.$.#.-.:.:.",
"$.;.} #.#.| #.*.#.#.%.Z.#.%./.m.P.T.V.| | | V [ [ | -.-.-.;.*.V.:.%.H.&.#.#.+.W +.+.[ [ #.:.n.n.R.K.&.M.S.| -.&.-.| :.>.%.*.Z.Z.",
"C.*.| X.| @.E $.#.#.-.%.;.-.I.~.S.&.#.| | [ R [ *.C.-.#.*.C.+.%.H.:.S.M.:.+.| | #.| } { | ;.L.m.L.Y.H.;.V.#.-.#.#.-.>.I.o.| #.-.",
"%.o.| } } @.#.>.;.;.F.#.*.%.$.P.H.H.#.-.-.*.*.| -.-.;.;.*.*.-.;.:.*.*.%.Z.:.#.*.[ R R | -.C.T.R.K.Y.I.%.H.#.#.#.;.*.+.Z.K.Z.#.o.",
";.-.%.#.+.*.#.#.#.+.| #.#.%.:.n.n.&.%.Z.-.%.B.@.@.-.S.I.;.[ o.-.#.| | -.-.&.n.#.+.| } [ [ ;.T.R.U.Y.I.K.H.$.$.;.*.#.#.-.#.$.#.*.",
"&.#.*.%.;.:.M.;.*.W Q &.$.;.%.&.&.&.-.-.C.;.@.*.| -.C.H.H.#.;.:.>.=.| ;.#.M.I.H.;.;.#.R } :.M.M.n.:.:.:.H.I.$.%.#.:.;.>.*.*.%.H.",
"v.#.-.#.#.#.;.*.W R *.V.%.;.-.&.n.I.%.*.*.-.%.-.G.*.| I.;.q.q.0...0.0.*.I.H.&.:.!.H.#.{ *.-.#.%.%.#.:.M.H.Z.n.%.$.$.;.L.-.%.m.n.",
"K.M.H.M.&.$.o.+.[ E $.*.o.;.M.M.*.S.*.;.F.!.*.-.q.-.*.-.0.5.r.r.r.r.r.6.Q.F.*.>.F.I.#.#.;.;.Z.#.o.&.$.%.K.H.M.R.K.&.M.&.b.&.n.:.",
"m.v.:.Y.K.#.&.M.V.#.#.*.| | #.@.*.-.;.;.Q.!.@.@.2.,.,.1.5.s.g.g.g.g.g.u.2.5.1.e.w.I.| | R -.V.#.*.%.#.:.U.U.H.Y.P.&.C.:.M.&.$.%.",
"$.n.H.Y.U.U.Y.%.#.$.$.| } #.| [ | ;.#.o.>.0.8.2.5.t.t.t.i.h.'.'.'.'.j.g.t.t.t.u.e.0.X.X.#.%.#.%.%.:.%.H.V.$.+.H.&.&.V.!.%.| | o.",
"#.M.n.n.$.v.M.:.o.%.#.| } :.#.o.[ #.;.%.w.5.3.r.g.h.h.h.j.j.'.'.j.'.j.j.h.h.h.g.u.y.4.0.Z.#.&.-.#.;.*.M.#.#.;.K.$.H.T.-.*.@.| | ",
"-.#.#.n.K.n.H.&.$.;.-.#.{ %.;.Z.#.$.#.X.5.u.i.g.h.'.'.'.'.'.'.].].].].].j.j.j.j.g.g.i.u.0.o.n.&.:.~.I.:.&.%.#.T.:.M.-.>.+.| [ | ",
"Y.;.%.I.~.Y.P.&.#.#.o.| #.$.;.:.#.;.@.,.r.i.h.j.j.j.j.j.F.j.g.t.t.t.t.g.j.j.j.j.j.j.j.s.5. .| :.M.Z.:.! #.#.+.Z.;.| | -.*.*.*.%.",
":.#.%.I.~.M.M.n.;.M.P.V.$.$.%.#.#.| @.,.r.i.h.j.j.j.j.j.j.h.) 7 = = 7 ) h.j.j.j.F.j.j.h.g.5.X.#.$.;.;.;.o.o.E #.*.| } *.| Z.I.;.",
"#.$.#.#.H.#.%.;.M.~.U.H.&.#.%.*.-.X.<.5.t.g.h.j.j.j.j.r./ / 0 . @ O . 0 ~ / r.j.'.'.j.'.h.s.p.0.%.*.;.%.o.[ #.#.-.#.[ [ [ Z.:.Z.",
":.v.:.&.&.$.M.:.H.&.%.Z.&.$.V.+.| X.3.t.g.h.j.j.j.h.t.s % # o + 3 3 $ @ # & c i.j.'.'.'.j.j.i.3.X.#.;.-.| { R [ | #.| V [ #.*.#.",
"H.#.;.C.=.$.I.&.:.V.#.%.>.%.:.#.| X.3.t.g.j.j.j.j.r.a 2 , , , 6 x C z g d g w a t.j.j.j.j.j.f.' ` #.#.[ V { [ R [ | [ +.*.-.;.%.",
"#.| @.| %.%.Y.n.K.~.Z.#.:.:.M.@. .,.r.i.g.j.j.h.r.B < 1 f g l v F x.l.C b C j 5 ^ t.h.j.j.j.g.t.1.@.*.` [ { [ | *.*.| #.#.#.%.I.",
"#.#.| | *.;.Z.Z.&.-.C.V.#.>.0.3.3.y.i.h.j.j.].g.a < 6 f g g v G x.x.l.C b Z C z 2 s g.].'.j.j.h.u.,.[ R | ;.#.} +.#.;.#.%.%.%.:.",
"-.&.>.;.@.;.S.&.$.;.-.&.=.8.5.t.i.g.h.j.j.j.].i.0 @ d z z j b l.x.x.l.C b Z F v - q g.].'.'.'.j.g.u.,.[ | #.#.| [ #.Z.>.%.-.#.$.",
"Z.&.:.&.*.#.C.~.I.:.#.&.=.3.t.g.h.j.j.N.j.j.g._ 8 - d v C l b l.x.x.l.C b Z F b 3 e _ g.j.j.].'.j.g.3.( ` | | | { *.-.{ #.+.#.H.",
"Z.M.$.#.#.%.;.V.I.$.;.K.>.3.u.g.h.j.'.j.j.h.) 8 2 6 g v C l b l.x.x.l.C b Z D Z v h 9 ) h.j.'.j.j.g.r. .[ } } [ [ } R V R | %.-.",
";.Z.:.:.Z.:.S.;.%.$.;.*.2.t.i.g.j.j.j.j.g.) y > 6 j z C C l b l.x.x.l.C b Z D D D x 6 p ) g.'.j.j.h.i.5. .| *.| R W W [ [ | +.B.",
"-.I.Z.K.R.H.H.C.;.:.;.<.r.i.g.g.j.j.j.].t.7 : d g z C D C l b l.x.x.l.C b Z D D D Z v 3 8 t.].j.j.j.h.t.,.%.%.-.o.| | %.#.#.*.G.",
"$.$.T.T.R.H.:.*.*.;.;.8.r.i.g.h.j.j.j.j.t.= $ f x C Z D C l b l.x.x.l.C b Z D D D D C , 7 t.'.`.j.j.j.i.3.>.#.*.[ R -.;.$.#.%.~.",
"n.K.n.V.I.:.-.#.#.;.@.9.r.i.g.j.j.j.j.t.^ < , g b D D D C l b l.x.x.l.C b Z Z C Z D C d 8 / t.j.j.j.j.t.5.>.%.@.@.| | ;.V.%.:.I.",
"$.M.&.V.H.H.I.m.+.:.| ,.r.i.g.j.j.j.h.~ * 5 d j b D D D C l b l.x.x.l.C b C C b C D D v d < ~ h.j.j.j.t.5.%.;.| +.*.E #.&.&.&.&.",
":.Y.K.-.H.:.:.$.$.#.+.,.r.i.g.j.j.j.g.s + 4 j z C D D D C l b l.x.x.l.C b C C v b C D C g @ s h.j.j.j.i.4.=.%.*.+.*.| #.%.K.I.H.",
"I.K.:.+.*.;.;.#.| | [ 1.r.i.g.j.j.j.g.s + 4 l v C D D D C l b l.x.x.l.C b Z C b b C Z n f @ s h.j.j.j.t.5.O.| $.#.*.*.#.&.&.I.;.",
"H.H.%.-.C.$.o.} [ [ +.2.r.i.h.j.j.j.g.s + 4 l v C D D D C l b l.x.x.l.C b Z Z Z Z Z Z n f @ s h.j.j.j.i.3.[ | *.;.Z.o.| $.&.H.V.",
"| T.#.$.:.%.:.*.+.| #.2.t.i.g.j.j.j.g.s + 4 l v C D D D C l b l.x.x.l.C b Z D D D D Z n f @ s h.j.j.j.t.3.X.o.| +.*.#.#.&.&.H.;.",
":.I.%.%.#.:.Z.| | | [ 1.t.f.g.j.j.j.g.s + 4 l v C D D D C l b l.l.l.l.C b Z D D D D Z n f @ s h.j.j.j.i.5.X.| +.#.*.$.+.*.;.M.P.",
"m.H.&.%.;.>.;.{ |  .,.t.i.g.h.j.j.j.g.s + 4 l v C D D D C l b G Z F G C b Z D D D D Z n f @ s h.j.j.j.h.s.3. .[ ;.;.#.*.*.V.:.~.",
"P.H.I.V.:.-.-.@.#.X.3.t.g.g.h.j.j.].g.s + 4 l v C D D D C l b G C C G C b Z D D D D Z n f @ s h.].j.j.j.g.t...*.Z.V.#.$.H.%.:.~.",
":.M.H.%.o.-.>.-.#.X.3.t.g.g.h.j.j.j.i.a @ 6 l v C D D D C l b G C C G C b Z D D D D Z n g $ s g.j.j.j.'.g.t.2.#.#.| +.V.M.V.H.U.",
"Z.:.&.Z.I.-.*.-.| X.3.t.g.g.h.j.j.t.s 8 1 d l v C D D D C l b k.G G l.C b Z D D D D Z n z l k ~ t.j.j.'.g.t.1.| | | %.&.n.I.$.v.",
"#.#.$.V.S.S.H.>.;.0.3.t.g.g.g.j.j.) & > f l z v C D D D C l b l.x.x.l.C b Z D D D D Z n C F f = _ ].'.'.g.r.<.| #.;.:.o.#.&.&.#.",
"| #.$.H.I.I.I.#.*.0.3.t.g.g.g.j.j.) % ; j b b v C D D D C l b l.x.x.l.C b Z D D D D Z n C G f * _ '.'.'.g.r.<.:.:.#.$.%.Z.V.!.*.",
"+.| #.M.S.%.$.#.*.*.3.t.g.g.g.j.j.) % ; l C C b C D D D C l b l.x.x.l.C b Z D D D D Z n C G f * _ '.j.N.g.r.<.Q.H.#.&.Z.$.*.C.-.",
"Z.| $.m.%.#.%.;.#.*.3.t.g.g.g.j.j.) % ; j C C b C D D D C l b l.x.x.l.C b Z D D D D Z n C G f * _ j.j.j.g.r.1.;.n.#.Z.V.P.:.:.%.",
"M.#.$.H.M.o.*.F.| X.3.t.g.g.g.j.j.) % ; j C C b C D D D C l b l.x.x.l.C b Z D D D D Z b C G f * _ '.j.j.g.r.,.o.&.%.%.;.V.I.V.V.",
"K.M.n.I.H.$.>.*.| X.3.t.g.g.h.j.j.) % ; j C C b C D D D C l b l.x.x.l.C b Z D D D b l z C G f * _ j.'.j.g.r.,.#.:.%.%.;.;.+.I.~.",
"I.K.K.H.H.;.@.| [ X.3.t.g.g.h.j.j.) % ; j C C b C D D D C l b l.x.x.l.C b Z D Z C g $ 4 v F f * _ ].j.j.g.r.2.-.;.Z.#.:.-.| ;.I.",
":.H.H.M.%.| [ o.2.3.3.t.g.h.j.'.j.) % ; j C C b C D D D C l b l.x.x.l.C b Z D C d $ . @ 6 Z f * _ j.j.j.g.t.3.<.| #.*.Z.~.K.H.&.",
"I.%.#.#.| R o.=.1.r.t.t.g.j.j.j.j.) % ; j C C b C D D D C l b l.x.x.l.C b C b g $     X 3 C f * _ j.j.j.h.t.r.3.O.m.T.%.%.U.R.R.",
":.H.n.m.#.&.:.F.2.t.i.g.g.j.j.j.h.) % ; j C C b C D D D C l b l.x.x.l.C b C g $ .   . 1 z F f * ) j.j.j.j.h.i.3.X.m.n.%.T.U.~.V.",
"m.R.U.U.V.P.&.Q.2.t.i.g.g.j.j.g.) q o > j C C b C D D D C l b l.x.x.l.C b C z 6 4 3 3 g C G f + q ) h.'.'.j.i.3.X.K.$.H.R.L.I.T.",
"&.&.&.n.K.&.V.Q.1.t.i.g.g.j.].i.q . X , l C C b C D D D C l b l.x.x.l.C b Z Z C C b x x C G l @ o i g.].'.j.i.4.*.n.H.m.M.Z.T.P.",
":.:.U.U.T.:.n.Q.2.t.i.g.g.j.].i.0 O , d l C C b C D D D C l b l.x.x.l.C b Z D D D C v x C G F l $ e g.].j.j.i.3.O.#.%.:.V.H.I.I.",
"v.K.R.m.m.K.m.>.2.t.f.g.g.j.].i.q @ 6 l x C C b C D D D C l b l.x.x.l.C b Z D D D C n v C G x.Z > i g.].j.j.i.3.O.%.%.;.M.T.Z.Y.",
"U.K.I.!.M.~.D.>.2.t.i.g.g.j.].i.q @ d x C Z C b C D D D C l b l.x.x.l.C b Z D D D D Z b C G x.Z > i g.].j.j.i.3.*.:.H.:.:.I.;.Y.",
"R.).:.Q.;.I.H.>.1.t.i.g.j.j.].i.q @ d v D D C b C D D D C l b l.x.x.l.C b Z D D D D Z n C G x.Z > i g.].j.j.i.3...| :.#.:.H.m.m.",
"~.W.R.~.K.!.I.Z.1.t.g.h.j.j.].f.q @ d v D D C b C D D D C l b l.x.x.l.C b Z D D D D Z n C G x.Z > i g.].j.j.i.3.@.#.:.Z.V.I.I.U.",
"_.R.T.I.T.R.I.;.5.t.g.h.j.j.].f.q @ d v D D C v C D D D C l b l.x.x.l.C b Z D D D D Z n C G x.Z > i g.].j.j.f.3.@.| o.I.H.I.H.R.",
"R.:.V.U.Y.T.:.Q.7.t.g.h.j.j.].i.q @ d v D D C v b C Z D C l b l.x.x.l.C b Z D D D D Z n C G x.Z > i g.].j.j.i.3.X.#.H.I.I.I.I.(.",
"V.H.H.K.m.K.I.!.2.t.g.h.N.N.].i.q @ d v D D C v v b Z D C l b l.x.x.G C b Z D D D D Z n C G x.Z > i g.].j.j.i.3.*.~.T.Z.;.(.~.~.",
"V.V.H.&.:.:.H.-.1.t.f.h.j.'.].i.0 @ d v Z Z C v x b Z D C l b l.x.G C v b Z D D D D Z b C G z.Z > u g.].'.j.f.3.X.&.V.Z.Z.H.I.I.",
"S.M.H.:.:.Z.H.M.0.e.a.N.`.`.`.p.N t m H Y U P H A H U P S m H I c.I H J H P U H U Y P H L Y Y S r M p.`.`.d.a.<.X.H.&.:.Z.H.T.H.",
"$.&.H.:.:.I.).R.Y.I.~.H.&.:.Z.%.>.M.&.;.V.H.%.#.;.-.+.[ E %.$.+.#.#.#.+.$.#.*.[ ;.;.#.#.;.;.| V V K +.:.K.;.H.#.-.&.I.:.n.T.:.%.",
":.I.n.:.:.R.U.P.).~.H.V.%.:.-.*.H.%.%.:.&.I.;.#.-.*.#.] W ;.| | *.+.} R o.=.@.X.+.+.E #.#.o.R [ ` | Z.Z.V.;.T.M.H.K.~.R.m.H.K.;.",
"%.$.%.U.m.n.U.U.H.n.o.#.#.;.-.%.:.$.%.-.$.#.| #.-.@.| R [ } } #.#.+.| R | [ } +.} } | o.o.+.T R [ %.&.H.#.#.K.M.#.;.G.!.T.n.$.%.",
":.&.K.^.H.$.m.R.~.&.%.:.M.I.:.;.*.#.#.#.*.#.[ %.-.>.[ *.E } @.*.#.#.#.W #.| | | #.| +.#.o.[ [ [ *.%.R.&.;.#.>.#.$.#.-.!.H.n.$.:.",
"I.&.m.K.-.-.K.V.T.M.:.H.&.;.-.I.:.| ;.>.#.| [ [ -.%.%.#.$.$.;.*.*.#.%.;.:.;.>.#.#.#.#.| | #.| [ -.K.~.S.S.#.%.#.#.*.[ | %.%.o.&.",
":.&.I.I.C.:.H.:.;.*.%.;.%.C.-.M.H.} *.F.-.+.| @.*.*.#.#.;.%.#.&.[ #.V.*.| Z.Q.o.-.#.Q #.&.;.-.| ;.~.K.:.:.%.#.:.:.#.+.#.K.U.!.!."
};
