/* XPM */
static char *_544460e90f8469da72e0d85669bbc5a6Bn4PVbOhBwJNzJF[] = {
/* columns rows colors chars-per-pixel */
"64 64 154 2 ",
"   c #534E36",
".  c #595537",
"X  c #5B573D",
"o  c #5D5C3D",
"O  c #675C37",
"+  c #625E3D",
"@  c #5F623E",
"#  c #64623E",
"$  c #6A643D",
"%  c #66683F",
"&  c #6C6A3E",
"*  c #71673C",
"=  c #736C3E",
"-  c #7A6D3E",
";  c #75703F",
":  c #7B713F",
">  c #5F5D40",
",  c #615D41",
"<  c #5F6341",
"1  c #646541",
"2  c #696642",
"3  c #666A43",
"4  c #6C6C43",
"5  c #6B6E49",
"6  c #726E42",
"7  c #706F48",
"8  c #677044",
"9  c #6D7145",
"0  c #677048",
"q  c #6E7349",
"w  c #6F794B",
"e  c #747445",
"r  c #7B7543",
"t  c #757946",
"y  c #7C7A46",
"u  c #737649",
"i  c #797749",
"p  c #757B4A",
"a  c #7B7D4A",
"s  c #757F50",
"d  c #7C7F50",
"f  c #827643",
"g  c #847D45",
"h  c #847D46",
"j  c #827B46",
"k  c #897D46",
"l  c #817F49",
"z  c #817E4A",
"x  c #847D49",
"c  c #867E48",
"v  c #827E49",
"b  c #8A7F49",
"n  c #7C8047",
"m  c #77814E",
"M  c #77814F",
"N  c #76814D",
"B  c #7A804B",
"V  c #7B814B",
"C  c #7C804A",
"Z  c #7D804B",
"A  c #7F804A",
"S  c #7E804B",
"D  c #7D834B",
"F  c #7A834D",
"G  c #78804E",
"H  c #7A814E",
"J  c #7E814D",
"K  c #7D834D",
"L  c #7F824C",
"P  c #7A844F",
"I  c #7E854C",
"U  c #7F844D",
"Y  c #7D874D",
"T  c #7D854F",
"R  c #7E864E",
"E  c #7F874E",
"W  c #7D824C",
"Q  c #7D884F",
"!  c #768251",
"~  c #798552",
"^  c #7D8750",
"/  c #7E8751",
"(  c #7C8551",
")  c #7E8A52",
"_  c #7F8F58",
"`  c #848047",
"'  c #898047",
"]  c #838049",
"[  c #838149",
"{  c #80804A",
"}  c #80834B",
"|  c #848249",
" . c #858349",
".. c #84824A",
"X. c #87834A",
"o. c #81844B",
"O. c #85854B",
"+. c #87854A",
"@. c #86844B",
"#. c #81834D",
"$. c #81824E",
"%. c #82854C",
"&. c #81864D",
"*. c #80874D",
"=. c #82874D",
"-. c #81854F",
";. c #81874F",
":. c #84854C",
">. c #85864C",
",. c #84874D",
"<. c #85874D",
"1. c #83834C",
"2. c #89854B",
"3. c #8A844C",
"4. c #89854E",
"5. c #8A874E",
"6. c #8D844D",
"7. c #8A844B",
"8. c #81884C",
"9. c #84884E",
"0. c #85894E",
"q. c #8A8B4F",
"w. c #888D4F",
"e. c #8B8A4E",
"r. c #91864B",
"t. c #918A4E",
"y. c #988C4E",
"u. c #828750",
"i. c #818552",
"p. c #878751",
"a. c #838654",
"s. c #828651",
"d. c #888750",
"f. c #838C54",
"g. c #848B52",
"h. c #898850",
"j. c #8B8B50",
"k. c #898F51",
"l. c #8E8C50",
"z. c #8F8E52",
"x. c #8A8D51",
"c. c #938D50",
"v. c #859255",
"b. c #8B9254",
"n. c #879758",
"m. c #84935A",
"M. c #8A9459",
"N. c #8B995B",
"B. c #929353",
"V. c #9B9155",
"C. c #999A56",
"Z. c #949E5D",
"A. c #929A5A",
"S. c #9A9F5A",
/* pixels */
"c p a 6 w m y ,.w 2 p u 4 4 1.+...p 9 p 7 p o 1 # 1 p.a r r 7 e A e a a 9 u r a u 9 4 5 %.y c y - 5.A ..f.u u y Z.u y r e p a a ",
"r a @ 7 u 1 e u 9 e i U e y n.f +.k.%.4 4 5 o 1 1 5 s p m p u %.j u 1.f e i 4 # 9 9 1 1 e A j j q.1.r l %.1 m f u 2 a K p u U U ",
"H u 9 q 6 w O r u e p e a p 0.z.U y 6 1 9 1 @ 1 p P p 4 u ( & u i.a ( 1.y 9 3 4 e 4 2 $ 3 a ,.h 8.5.l B A e a e r p a p.& 4 9 p ",
"y 4 2 1 1 q t $.a a a.e u u r ,.K +.= p p q u 3 a p y a q u a a a u u u U a e u 1 + o 5 p H U z.1.j.%.r ..7 r 6 a u 4 $.5.i.u 6 ",
"K p p e 9 u 4 u u 9 5 e 6 y j h f y y A t r ( w 0 a %.%.B 1 5 p e 2 $ H p r f 4 9 4 1 1 , a q.j.6.2.,...1.r r a 9 r 6 p e r 9 u ",
"r e p u a a c p p % $ h r a t y y y p p K a 9 p 1 p ( l %.9 i a P i 4 a 4 l 0.$.a P u o 1 j :.v h y a a %.j.e a e A A a q u r ..",
"f e p e e 6 a p # o i A t a p y ` g.t e w p u p f.w 2 p.y K 8.U 2 a a e i.$.r a v.1.e # p m 5 y t e a ..1.P f u e r B +.i y c h ",
":.c 1...y a 6 5 1 $ r u * a 1...9 u.t a ( n.9 m ! a u H A a a w $ 2 u r 5.g.e y i.g.4 a K t U e * a r u ..l l t...y j y l r j a ",
"b r y q.b e r 1.%.e 9 u 1 4 e q u p a a u.f.5 5 p 3 1 9 l p p ( 6 e 5 ..y K 1.z.p.+.4 9 . a U e u y 9 A 6.5.1.5.+.y P y l f r y ",
"e j %.q.X.t.l.y 4 r y 4 3 e 9 1 4 H u 4 ( p u u e 4 + 4 e u ) u a U H k.y l k.- ` %.e 9 u i 6 a y y p :.A u 4 +.r r A g.i 4 & e ",
"e ..h f r r l j 6 y e 9 1 1.u 7 # e H u %.p u p 0 # 2 3 e e A u 4 U a b a u.:.5.( ( 4 $.g.u l p e a 9 1.e e H ..: ,.0.p p w 3 5 ",
"p 6 e f ..f 1.y r B p e $ u a %.e r u 5 p t 1 p 9 p y 9 4 2 r h r u 9 1.9 u 7.%.u & p ( a e l y a b.,.A y t e k.A 1.p a 5 5 1 3 ",
"l.a u ,.j.5.+.y t e 4 3 e r a a e a u # o 7 1 e & t e u e 2 A ..c u i 2 4 1.$.& e e K H = O & y 1.A a * u t 5 H p 4 3 a u 7 u y ",
"a 9 y 0.b.v a f i l q.A r y i 4 e 2 q 5 p 3 o 4 e u u a e r m 0.9 t l 4 e u B a M.+.e.y * i.u e 6 a a a 6 e # r u 2 3 p 5 U ,.a ",
"6 r u * :.u y a z B.7.1.r 6 p u a 5 9 p 5 u u i a u u A K p p a # r y y u 6 ..A g.h r ,.5.a K $.a u y y e @ u e H u 1 1 1 U a B ",
"z f a y y e 1.a 1.t e ( r r %.9 2 u 3 5 e 9 e = a v 1.p p p 4 9 9 P 4 u & a A.y ] y y q.h u a e 4 e i a 2 2 # 1 2 u 9 X 1 e e e ",
"%.e B U r r k.r y A = p d r a 6 4 r 5 u U t 6 y y b j p u.9 u $ e U e # U q.y r %.0.g.c ..j a < X r e , X 4 , # 1 5 1 e u t H y ",
"6 4 q 2 a u e.j X.b.P u 1.y 2.u 4 # & a A r k.f y z.0.6 9 e 1 # 9 2 5 5 a y r a u B a ,.p p K + 4 p p , 1 1 1 3 p u 4 u 6 u a 0.",
"r e 3 1 9 a H B y t ( $.6 H 2.a u 9 $ u y 1.b.r +.a j 6 t 9 + 3 e 6 1 e $ 9 6.k.%.H $.w.a e e p 3 $ # # 2 a e 1 9 e a 6 y p r y ",
"p y K a q p U y : a p r a p A y e u 3 e j 6.j a l a u 0.y y 9 1 y e + $ e g.a A u e d.,.r A y 9 9 # + # 2 u u 9 # e i.K y p e r ",
"%.r $.y u 4 H b.1.a e y a y y A ..t ( a t a l l f a 5.r...a u h & o 6 r a r * r 2 y 2.h l r 4 4 # 1 $   , 5 4 5 2 p p 2 e 9 9 q.",
"( l u e u p a A 0.r a 5.1.4 5 p a = e a u u k.y h $.r j j p K A y y q.f y 4 N 2 i 1.* h y A 7 $ y i 1 # 1 1 1 @ 3 3 + X o 2 p p ",
"p U a a B y ( y y r a p a 9 5 1 9 p 1.1.f.,.e f h b.r +.,.X.u.U y y y 6.z.p y t 9 a ..r = a H y 1.l 2 H $ 9 p 2 # & $ < 1 & 4 m ",
"t u.K ' k.l $.K B l y u a r q.y a K y a y y a y z.z g.6.%.k.1.,.1.e A a l l u p a %.l r b.y r ..k a t 3 $ a y p 6 4 3 a r e u u.",
": ; k.,.q...a w e p a $.y a t r j a y 5 e 5.l 0.,.e l 0...,.X.B.h r 1.y ..u K ) 1.H p K %.y l ,.l h p p y l e p 1 o p y i r t z.",
"f ..f n 0.y t e ; a 5 u.e t p 0.,.r 6 u p e e r 1.b.0.v.%.0.j y ,.u.g...2.y a ) a u %.g.c r B t.,.y a = ..U t q w 5 3 A 1.u a ,.",
"e l y A 1.z 5.X.& 1.1 w u y t ..j a 4 1 9 1.8.j...f 1.q.g.6.f a 1.8.A %.r f y p 2 a r c a ..%...r u u U g.r A 1 5 u # e y y r y ",
"a 6...p $.a a r r e 9 3 y ,.A 1.a v.8 p p p $.g.g.l k.X.,.j 0.b.B a y 1.r a K 1.y 1.v q.A.y g.b.h a p t - f y e 9 u 4 & y 2.,.1.",
"0.1.A 9 9 K a 5 9 2 < p :.r U a p t p r g.y j.a p p A 5.b.b.1.y U y y g.,...1.6 y ..l a p y y e.f 1.y +.,.r $ r 4 p p u f y j.p ",
"1.1.u p ( 6 = 1 $ 1 u 1.& u 2 > u $.f.y 1.U ,.u.g.H p a u.A.r j b a 8.j 1.j K e r 1.a %.0.j ,.,.a r ` k.a # 5 p a ( 4 4 r r 1.K ",
"& k.e r z r 1.u 9 2 e H p 3 $ 9 9 U 1.a q.0.8.b.( K ) p 5.f.k.+.q.8.q.6.u.r r y f y = A l q.5.5.c 2.b a r u 6 5 9 e 5 7 l r ,.a ",
"a 0.r a 4 l ( 1 5 6 # e 2 6 i # u b.%.,.1.a A U $.p m.$.k.h b +.y r +.l ,.- r y y = y y l r r ,.e.0.y 2.a 4 2 9 e u a 4 w a c +.",
"b I f t p a a # 5 3 2 a a : a 4 A b.6...X.f $.g.k.a K %.f.X.x.k.X.- j y ,.,.q.y j a j +.8.y f :.h 1.k.y.r 3 1 # p a = i 9 K a k.",
"1.j 8.A a p i u e u r y i 0.t 4 u.B.q.l b.i.%.g.u.,.k.H A a a r h f ..j :.k.X.+.X.,.a 5.0.= v y f f e.1.,.,.* u $.1.i u +.y y g.",
"a j 1.y & p a s 6 u p u.y t z.a u t U q.A.8.a 3.u.v.u.f a 0.y y b +.f h h +.y a 2.,.1.:.y r $.i.c b ,.A 1.h a y e 4 9 %.j n 1.2.",
"K l y B g.i 0 s 1 a U 5 q e a u u u q.c.g.b.,.a p %.n.,.$.a ......l q.,.X.+.r q.c.B X.h f ..6.$.b.j ,.j t r p 2 1 & y r f 8.r f ",
"e u r A U U %.a a l $.9 9 a 3 5 a f q.,.u.b.z.y c g.b.0.y q.....y 1.5.a f f r 8.%.y B.0.1.,.r r X.$.a %./ r e 2 e a $.4 u y r e ",
"4 e r %.1.0.l.5 p u u a = %.a b.y r b.k.k.b.g.+.c $.y 7.,.2.: ..b j v l N A r l r 6.b.1.k.b r j l p f a 9 1 u a 1.6 r u %.A u.u ",
"q 2 e a %.r u 9 p p - f 5.$.$.H ) y 5.N.5.6.h U K A.X.e.z.h l e.5.8.E g.,.t A r f y y 2.X.f r b a :.6 g.e u a 0...e y P r 9 U t ",
"%.4 e k t u y i e a h f 0.a H a a H u.1.,.U ,.2.q.z.2.f ,.%.a A...2.y g.,.+.0.1.g.A y 1.j ,.l y p m u H p t p a h 6 B A 5.l a t ",
"l 4 r A ..& u f.2 u :.c = l U ( u a ( P A ..c t.2.%.q.j a l 2.X.j r u.r y %.,.8.e.B.0.X.t N ..5.k.$ u K t p o 4 f y u a B j.n a ",
"..c y 8.1.r K u 3 & r %.1...y %.i.a f.u.H g.i.f.%.$.y r U f h ..6.r y = ; e ..:...e.y r a a U 6 K 5 t 1.u 3 1 u a u t p p 9 g.k.",
"5.` X.1.1.a q 1 1 e t 1.U b.( K f.K a a m.f.:.%.k.j.6.p t 2.j l k...B ..y y k.,.y B.z.$.A a a :.p K 9 5 p 6 y a K P e A p 1 a ,.",
"y %.+.l y 1 o e p u y K u.a ( _ b.$.b.g.j.l p ,.b.( 2.a u A q.6.%.g.) g.8.+.g.) g.) m H 0.j f.p y e 3 6 r e u e & e 9 $.k...$.r ",
"0.u u e & + 6 y y p y $.y g.u.u.A u 0.b.N.f.b.$.l B ) $.e g.f.5.$.m j.k.a v.0.P a.$.e y U y a u k.9 # & a y B 3 e h k.r u r.e.z.",
"a 1.y 2.= y a U c.,.y a u.N.,.a 6 t f.b.k.H f.) g.H f.,.u.z l a ) ) 1.u.p K f.H %.j.r b z.9 t u 9 2 4 e a l r p e c j r g.6.b.y ",
"h z.' X.K ,.r k.f y %.e e = e i.$.y U M.0.%.q.,.u.g.p U K y u p n.u.) H U i H U U %.a z.k.y q.B 9 ) i e u z 0.,.6 ,.e 1.q.A 1.q.",
"r y y y X.r K ,.1...e z.2.y p ( p 8.u.H H u %.5.f.a H ( p a U f.x.B.b.k 1.( b.8.y i.A B.l $.e.4 u t e 6 y a a h l y p.X.f a k...",
"n y X.6.k.y f q.w.1.j i.u.~ _ s 9 Q A A K v.H K K K f.f.%.p.u u.k.M.a 2.,.i.v.P y g.k.5.r K a 5 + p e r f 5.r e r = a a 1.1.K %.",
"r ' t.h j 2.b 1.,.r a H N.f.9 f.g.4 ,.%.1.A h i.$.b.K i.f.b.( x.M.A.y g.a f.u.a K a z.B.u.1.! p 6 w H f 1.%.f u e y y y j u.K 5.",
"X.X.%.f.j j.) B X.r a A f.f.$.$.$.1.p p %.%.f a $.n.u.%.g.$.m.k.%.x.( m y ,.P y $.m.q.5.g.%.y i 5 ,.l 1.a c i.a a l %.A a U t q.",
"z.B.y i.u g.l %.y e q.k.A h a s.1.,.) p y 5.B.g.v.b.f.p u.p ) a %.) ( f.i.p y a U n.a a $.a u a a m y K a 5.( r 4 & ] 6 a 1.h b ",
"z.c.e.k...u.%.0.r a g.y r 5.g.H A 4 M.%.2.t.e ,.c 0.u.p p p.f.~ ( u.b.j.~ 9 r +.g.0.a p w u 2 1 4 r a y & a 2 p i e a K a 0.0.2.",
"S.e.w.$.0.q.%.y f b.j.e j...g.u t f.a a A y a ,.a ` y P q 9 K f.b.u.H 9 p i t +.q.B u 5 p a a u 2 ~ p $.U r p e u 4 * 0.1.1.1.q.",
"k.y y 7.6.q.r q.e.a e y p u f H H H u ..1.K 1...p l r 5 u y p g.A y y u p p 6 f q.q.r 3 9 u.f.q 6 a y 9 3 p ( 1.e 5 5.$.%.+.%.b.",
"a 1.+.2.c ..,.v.1.%.a g.& 1 e e p u z 1.U e l %.r y ,.w e A a u t y %.4 u v.~ y H e a 9 t e 4 4 y & e K u 2 A q.r B.q.a u N.0.g.",
"A A 1.r a y ,.t f a a e 1.$ u e u ~ 0.B a $ P e A 1.a 3 9 4 5 a y e i + 2 p 7 9 7 e a K H 3 o 1 4 1 q c r = p 9 & y 1.I m l ,.U ",
"8.l 1.y l a A b k.,.r c.k.2.U q a p A A a A A e 3 t t 3 5 9 p r f & t U a u a 5 6 0.e e p 5 3 o o # 4 5.5.u 9 6 4 1.y a P a g.$.",
"u y ..A a ,.A.q.X.%.b...r a U u K ,.f p %.%.y a H a 9 1 $ a a 4 p : u p r u p 1 K a e a m v 5 X > + 5 a ..a +.e p r q.y f k.y i ",
"a q.f y a e.6.1.C.b.c K a A u e +.t p a y ,.a e p 9 u o $ U 2 4 e 9 1 o * a 9 5 5 9 # u e 4 + 1 o 2 i.$.A p k.f %.,.B.z.j 1.5.a ",
"p e r 7.k f 2.2.y f * e = a p r a e a a r u 2 e p q 3 # 1 3 1 e r 9 2 # 5 o 3 9 $ 1 2 = 6 w @ + 1 a r ,.e e X.$.e t ) f.0.h r t ",
"a r ' V.%.r h q.b.r a a ..,.a a u y u e u a # y p H 1 p $ 1 0 u u e e $ u 5 $ 9 e 9 9 t e 1 1 @ u y e.t a r H e r e p f.j j - a ",
"0.y c $.p p ..A u.1.l :.y y u g.y 4 a K 4 5 1 + p y a u r r a e p e r a a y a u a e u 2 2 e 9 + p ..b.U U e p e r u # 2 y y & r ",
"a r q.%.H a 1.a a u t a y ( u l %.< p ~ p 9 5 0 q u e = A t u f # t A 9 2 K u.6 a u & e y a p 7 a b.3.a y y 5 a j 5 9 e ..X.j.M."
};
