/* XPM */
static char *ea9fa96fa0a24d2eaebeb2d608ba6d24[] = {
/* columns rows colors chars-per-pixel */
"64 64 227 2 ",
"   c #1C1C1C",
".  c #2F1E1B",
"X  c #351D1B",
"o  c #391F21",
"O  c #262626",
"+  c #3B2624",
"@  c #393124",
"#  c #35362E",
"$  c #3B3B2D",
"%  c #3C2E3B",
"&  c #373537",
"*  c #393B31",
"=  c #461F1C",
"-  c #48231D",
";  c #57271E",
":  c #65221D",
">  c #682C1D",
",  c #73251D",
"<  c #472725",
"1  c #5A2C24",
"2  c #582B28",
"3  c #483627",
"4  c #423E2B",
"5  c #583A29",
"6  c #482D34",
"7  c #44323A",
"8  c #5D3B3D",
"9  c #702B29",
"0  c #663228",
"q  c #783524",
"w  c #613437",
"e  c #74363C",
"r  c #3F4230",
"t  c #444433",
"y  c #484A36",
"u  c #524630",
"i  c #564D32",
"p  c #535335",
"a  c #5B5335",
"s  c #52553B",
"d  c #585939",
"f  c #5D5C3E",
"g  c #625E3C",
"h  c #5F613D",
"j  c #63623E",
"k  c #69653E",
"l  c #67683F",
"z  c #6B6A3F",
"x  c #726C3E",
"c  c #373746",
"v  c #563841",
"b  c #453F58",
"n  c #773940",
"m  c #3F4245",
"M  c #3E434A",
"N  c #3F465E",
"B  c #2D5E76",
"V  c #474B48",
"C  c #4E514A",
"Z  c #575946",
"A  c #484B57",
"S  c #514B52",
"D  c #555754",
"F  c #555A5C",
"G  c #7A434A",
"H  c #625E41",
"J  c #644956",
"K  c #794A54",
"L  c #725C5D",
"P  c #5E6241",
"I  c #656541",
"U  c #696742",
"Y  c #666942",
"T  c #6B6C43",
"R  c #6D6F49",
"E  c #726E42",
"W  c #6D7145",
"Q  c #6E7349",
"!  c #737445",
"~  c #7A7544",
"^  c #767947",
"/  c #7C7A46",
"(  c #727649",
")  c #797748",
"_  c #757A4A",
"`  c #7B7D49",
"'  c #7A7D4A",
"]  c #464B66",
"[  c #4C5569",
"{  c #565865",
"}  c #555D6A",
"|  c #465172",
" . c #525C74",
".. c #535C7C",
"X. c #625C65",
"o. c #785967",
"O. c #655C74",
"+. c #5B626E",
"@. c #5C6674",
"#. c #5B637B",
"$. c #68676A",
"%. c #776A6E",
"&. c #666A75",
"*. c #626B7B",
"=. c #727577",
"-. c #7C727F",
";. c #84231C",
":. c #8D261D",
">. c #92291D",
",. c #9A2C1E",
"<. c #A4331F",
"1. c #8B2A25",
"2. c #982D21",
"3. c #8B3721",
"4. c #8B322E",
"5. c #9A3525",
"6. c #873736",
"7. c #A33321",
"8. c #AB3621",
"9. c #A93D24",
"0. c #B53D22",
"q. c #BC3F22",
"w. c #B44C1A",
"e. c #B64225",
"r. c #BD4123",
"t. c #AD4A33",
"y. c #CF5F1B",
"u. c #C54424",
"i. c #C64827",
"p. c #C3593F",
"a. c #843D40",
"s. c #89494A",
"d. c #974845",
"f. c #88545B",
"g. c #9E5452",
"h. c #B25544",
"j. c #817644",
"k. c #827C46",
"l. c #887E47",
"z. c #827E49",
"x. c #9B625C",
"c. c #B37555",
"v. c #9A6E70",
"b. c #A67470",
"n. c #C66E4E",
"m. c #77804E",
"M. c #7D824C",
"N. c #7F884F",
"B. c #768151",
"V. c #7D8551",
"C. c #7E8952",
"Z. c #E08B32",
"A. c #83834B",
"S. c #8A844C",
"D. c #85894E",
"F. c #8A8A4E",
"G. c #938B4F",
"H. c #818550",
"J. c #848B52",
"K. c #8A8D51",
"L. c #8B9154",
"P. c #879358",
"I. c #929554",
"U. c #BB996B",
"Y. c #B98C75",
"T. c #D8A75D",
"R. c #E4B14D",
"E. c #E1956F",
"W. c #E3A374",
"Q. c #596584",
"!. c #666C86",
"~. c #716C83",
"^. c #6C738A",
"/. c #787988",
"(. c #6A7794",
"). c #757C94",
"_. c #8D7C8C",
"`. c #A17F84",
"'. c #738087",
"]. c #798296",
"[. c #74829E",
"{. c #578CA0",
"}. c #7A89A4",
"|. c #7D8AA5",
" X c #62A2BB",
".X c #858897",
"XX c #8A8C99",
"oX c #97959A",
"OX c #A98D8D",
"+X c #828AA2",
"@X c #868FA7",
"#X c #8994A6",
"$X c #8593AD",
"%X c #9598A5",
"&X c #8897B1",
"*X c #8B99B1",
"=X c #929EB3",
"-X c #96A1AE",
";X c #94A1B9",
":X c #9AA5B9",
">X c #9BA6BA",
",X c #A7A7A6",
"<X c #B9AAA0",
"1X c #AEABB2",
"2X c #ACB2BE",
"3X c #B9B9B9",
"4X c #CB9C82",
"5X c #DCC294",
"6X c #E4C4A6",
"7X c #9CAAC0",
"8X c #92BDD2",
"9X c #A3AEC2",
"0X c #A5B1C5",
"qX c #ACB5C8",
"wX c #B3BAC9",
"eX c #B5BFD0",
"rX c #ADC0CA",
"tX c #BBC3D4",
"yX c #BDC6D6",
"uX c #CDCED4",
"iX c #C5CDDC",
"pX c #E1DAD1",
"aX c #D5DBE5",
"sX c #DEE1E8",
"dX c #E6E9ED",
"fX c #EAEDF2",
"gX c #F0F1F5",
/* pixels */
"z.' ' ! ( _ ' A.( T _ ! W E M.A.A.' ( ) ! _ P I I I H.' ~ / ! ! ' ! ' ' W ( ! _ ( W T T M.' z./ ~ S.M.A.J.( _ ' L.) ' ~ ! _ ' ' ",
"~ ' Y ! ! T ! ( ! ! ) M.! ^ J.l.A.D.M.T T T f I I R _ _ _ _ ( M./ ^ A./ ! ! W l W W I I ! ' k.k.F.A./ z.N.T _ / _ T ' ' ^ ( M.M.",
"M.( R R T Q k ~ ! ! _ ! ' _ D.K.N./ ! T T I j I ( M._ ! ( M.W ^ A.' N.z.` ! T T ! T Y U T ' A.z.A.S.A.' ' ! _ ! ! _ ' D.E T ! _ ",
"^ E T Y Y Q ! ' ' ' V.! ( ) ~ A.A.A.! _ _ ( ( R _ _ ' ' ( ( _ ' ' ( ( _ M.' ! ( I j j R _ M.D.F.A.S.A.^ A.! ! ! ' ( W M.A.M.! E ",
"' _ ) ! W ( ! ! ! W T ! ! ^ / k.k./ ^ M._ ) m.Q Q _ N.A.' I E _ ! T T _ _ / k.! W T Y I I ' D.F.S.S.D.A.A.~ ~ ' ( ! ! _ ! ~ ! ( ",
"/ ! ( ) ' ' z.' ( l z / ~ ' ^ / / / _ _ M.' Q ( R _ M.A.A.! ) ' M.) T ' ! z.D.A.' ' ! j Y ' z.z.k./ ' ' A.D.~ ^ ! ' ' ' ( ( ^ A.",
"j.! _ ! ! ! ' ( l j ( M.^ ' _ / k.A.^ ( ( _ ^ _ V._ T A.' M.A.M.T ) ) ! A.A./ ' J.A.! U ( _ ! ^ ^ ! ' z.A.M.k.^ ~ ~ ' A._ ^ l.k.",
"A.z.A.z./ ~ E W I z ~ ( E ' z.z.( N._ ' V.J.( _ B._ ! M.' M.' ( k T ( ~ D.H.~ ' A.A.! ! ' ' M.! E / ~ ^ l.A.z.F.A./ z./ k./ k.' ",
"l.j./ S.A.! / z.M.! ! ( T W ! Q ( _ ' ' H.J.Q Q ( R Y W ' _ _ M.! ! ! l.k.M.A.F.D.D.T T j ^ M.! ( ^ ! ' S.S.A.S.A./ M.' z./ ~ ^ ",
"~ k.A.S.S.S.S./ ! ~ ~ T Y ! W I T _ ! E M.' ( ( ( T j T z ( B.^ ' M.' F.k.z.J.~ A.A.( ! ! ) ! / ^ / ^ A.M.~ W A./ / M.J.) T T E ",
"! z.k.k.~ j.z./ E ^ ! T Y ' ! E I ! ' ^ A._ ( ( W j p $ 4 4 t j W M.' l.' H.D.S.M.V.! ' A.! / _ ! ' ( z.! ! ' A.~ A.D._ ( Q T T ",
"_ ! ! k.A.k.A./ ~ ' ( ! U ) ' M.! ~ ! ! ) _ U ) W d 5 9 > ; ; 5 j ! ( ' W ' S.M.! T ' V.' ! z./ ' K.D.' / ^ ! D.' z._ ' W R I T ",
"S.' ^ D.K.S.A./ ! ! E T ! ~ ' ' ! ' ( I j T I E d u 3.r.r.7.:.: 5 p d p p ( A.! ! ! ' ' E k T / z.A.' x ! ! W M.' T R _ ( ( ( ^ ",
"' ! ^ D.K.z.z.k.' z.A.M.~ ~ ) ! ! T Q W ( T I Y $ q r.u.u.0.,.4.8 m m V V Z ( ' J.A.S.^ ! M.! ! ~ ' ' ' ! ! k ! ( T Y ( T M.A.' ",
"! ~ ! ! A.! ^ ' z.K.S.A./ ! ) ( ) T W ! W ( ! l 3 3.u.u.0.2.4.o.].#X=X2X-X{ d ^ J.k./ D.A.' ' A.^ ( ' ~ E I ! ! _ ! I I I M.' M.",
"' j.' / / ~ z.' A./ ^ M./ ~ M.W T ! R ! ! ! l 4 q e.u.0.2.4.o.+X0XyXyXeX*X].F s / ' ' F.z.^ ' ! T ! ' _ T U j I T ! R f I ! ( ! ",
"A.! ' M.) ~ D./ / M.! ^ ' ^ ' ! T E T ! M.^ k @ 3.u.0.,.4.o.+X0XyXiXtX;X:X$X(.F s M.D.A.A.k._ I g ! ! I f U I j I T I W ( _ ' ^ ",
"! T Q T ) ^ S.k.A.K.M.~ ' / A.! T I T _ ' k.! 3 3.u.8.4.o.+X0XyXtXqX0X9XtX0X$X(.F s ^ D.' ' ' I T ( ( H Y U I T ( ( T ! ! ! ' A.",
"! ! T T ( ' M.M./ _ M.M.! M.A.' ! W T ! ^ ! g 0 9.u.8.6.^.|.9X9X0XqX:XXXwX%X].}.#.* ! D.' ) ! Q T k j j T ' ! Y W ! ' ! ^ ^ ^ ' ",
"_ / ' ' Q ' N./ ~ ' ' / ^ ' M.' ! ( R ! k.E 3 5.u.q.<.a.^.[.$X$X#X:X-XS %XF +.|. .# ! D./ ' / W T j g j T ! ! T U ! M.' ^ _ ! ~ ",
"M./ ' / ) ! M.J.A.' ! / ' ^ / M.A._ ' ' ^ Y 3 3.r.8.:.e ^.$X}.:X/.&.%XS %XF @.[.[ t ! z.k.~ E T l I j a H R T T U ( _ U ! W ! A.",
"M.z.~ ! ! ^ ' M.A.~ ' A.' ! T ( ' ! ! ' ^ ! T 3 3.7.: % !.@X[.;X.X/.-X$.,X*.#.@.y T x k./ ' ! x ! ! I j I Y Y I I Y j f j T _ _ ",
"' M.' ' M.' N.' ^ ~ ' _ ' ! T T ! ! ' M.J.D.l @ , >.; O M !.(.[.:X8X XY.4X{.B V j ' A.~ ~ ' ' ^ A.' T _ Y W ( T j l l I j l W m.",
"_ A.M.A.F.A.A.M.' ' ^ ^ ^ ~ D.~ ' M./ ' ^ / T @ : : 5 a s V #.}.:XrX1X5XW.OX'.F s ' z.^ D./ / A.z.' ( R l ^ ^ _ E T R ) ! ! ( C.",
"~ ~ D.D.F.A.' ( ( ' ' A./ ' ' ^ / / ^ W ! A.! @ : ; y ! i 2 G /.&X1X6X6XW.Y.oX@.r ( ' M.A./ z.D.l.z.' ' ^ ' ! ( I j _ ' ~ ~ ^ K.",
"k.A.k.M.D./ _ ! ! ' ( V.! ^ _ A.A.~ ! ( _ E i < , ; $ i ; , 1.G v.Y.E.E.n.L +.F p ( A.D.l./ M.F.D./ ' ~ A.M.^ Q Q R R ' M.^ ' D.",
"~ z./ M.A.A.D.z.W ' T Q ! / ^ A.A.' T Y ! l @ , , =   < s.d.d.4.7.r.i.i.5.6 O t T ' / l.M.A.A.A./ ! _ M.A.^ ' T W ( k ! / / / / ",
"' S.A._ A.' / ~ ~ ! W W ^ A.M.A.' J.W ( _ Y 3 : = . + X.1XwX%Xf.1.<.q.u.t.J c t l T ! A.L./ D.K.z.' ^ / ~ j.^ ! W ( T ! ^ A.D.A.",
"D.A.' W ( ' ' ! T T I ^ z./ M.' _ ' _ ~ D.^ k @ . 0 v.2XiXyX7X).K 4.9.h.`.!.] c * * t I ' / / S.k.z./ A.A.~ T ~ ! ( ( ! / / D.' ",
"A.A.^ _ M.~ E I I I ( / E ! T I ( ' D./ A.M.( @ 9 x.1XiXiX0X;X}./._._.OXqX*XQ. .!.^.*.C Y / A.S.k./ z.J.' U T ( ' ' E T ~ / A.M.",
"T D.! ~ ' ~ ' ( W T ! ' ! R k R W N.A.M.F.^ a q e.v.*X0X0X;X|.|.&X7XqXeXyX9X&.S X.o.o.$.Z l A.A.A.A.l.A.~ ! E T W ! ! ! k./ A.' ",
"' D.^ ^ ! ' M.T T T I ! T E ! I _ L.D.D.! a q e.u.d.-.|.|.}.!.).&X7XeXiXiX9XX.+ < 2 w o.X.C j A.S.D.k.A./ T T W ! ( ~ W ( ' z.A.",
"l.A./ ^ _ ' ' U T T U ) ' ~ ~ T M.L.S.A.g < 9.u.q.5.f.@X@X)...Q.}.&X7XeXwXXXS o < 2 2 w -.} t ' z.A.F.G.~ T j I ' ' ! ( ( M.' K.",
"A.A.A.M.' _ _ ( ! ( ~ / ) A.' ! A.I.F.A.j < 9.u.<.4.v.tXqX.X....(.[.*X;X=X{ 7 7 6 2 2 w /.} t ~ k.k.F.A.D.A.E ( M.M.! ~ A.^ / J.",
"' z.A.^ E _ ' _ ! ( _ N.' ^ F.' _ ' A.A.j 1 0.r.5.f.%XqX#XJ ] | Q.(.}.&X$X#.[ #.{ < 2 w -.} t ' A.l.D.M.A.l.' ! ! T W M.z.M.A.S.",
"M.' / M.A.' ( _ R ' M.Q ( ! ' ! ( ^ D.j 5 9.r.<.2.b.:X|.~.v b ] | ..^.).(...| Q.} < 2 w -.} t ' K.z.A.k.' ~ ) T T T ^ / k.A.~ j.",
"! ! ~ M.N.N.A.' ' ' A.Q ( ' W W ' / D.p ; r.r.,.1.OXwX:X).w w e e n G s.G v b | A < 2 w -.} 4 ~ S.A.' A.V.! ! T ! ' ' E ! / / ! ",
"T ! ~ A.A.D.D.! ( _ ! ' ! A.M.J./ k.K.d ; r.r.,.1.g.<XeXXXe ;.:.:.,.8.8.7., 6 c % + < 2 -.} 4 / z.' / ' ( T ( ' ' ! ~ ^ M.M.H.( ",
"W T ! z.N.^ ~ ! _ ^ ~ k.A.A.A.N.C.M.D.d 1 r.r.,.:.7.b.=X_.6.:.w.w.w.u.u.u.8., < + o < J &.D a k.' A.~ H.( ! ' D.A.! / M.~ ( M._ ",
"M.T ~ l.^ ! ^ ' ! ' k.k.D.' M.' ' M.N.p ; r.r.,.>.w.c.+X/.s.t.Z.Z.y.u.i.t.t.5.: o o 6 ~.A p / / ' ' ! ' _ _ ( ' k.! ' M.A.' ' ^ ",
"z.! ~ A.z.E ( V.T ! z.l.~ A.N.N.^ ' V.p 1 r.r.,.:.w.Y.-X;XoXZ.W.4Xn.p.h.%.~.K 9 < + 7 } m s A.A.J.T ! M._ ) j T / ^ ^ ' M.D.M.M.",
"l.z.k.A.A.~ ' ( T E ^ M.z.A./ A.A.M.J.d 1 e.r.,.:.> 3 $.1X,XR.5XuX3X<X_.).(.!.K 0 7 A c s ( M.! M.W ! ' ! R T ! ' ! _ ' ' ( A.K.",
"A.A.A.A.A.' Q T I ! ^ A.A.K.V.H.J.M.' ! a 9 0.0.>.- X q c.T.5XpXfXdXiXqX9X}.Q.O.O.[ M Z ( ' ' A._ ' W W ! E ~ ' ' M.! ' _ T ' D.",
"' A.A.z.^ T I ! ! ! ^ M.H.M.V.C.K.A.K.J.h < 9.r., X - d.Y.R.<XoX3XgXdXdXiXqX=X$X(.A s ( D.z.H.' ' ! T E ~ ! ) ! T ! ( M.J.A.A./ ",
"A.^ ! ! T j E / ' ' ^ A./ D.J.J.M.^ D.L._ i q 9.;   8 OX3XU.=.D %.oX1XfXfXsXaXtX-X$.s ! A.^ ' ^ D.( l z ' ^ ' R ! l.D.^ ^ S.F.F.",
"' A.k.A.! / ' A.F.D.' ' N.L.D.' ! ^ J.L.K.W u q - & /.tXeX#Xm s P t D ,X3XdXfXaXaX2X$.I ' ( ' ( ! T T ! ' ' ~ ) ! z.k.^ D.S.K.M.",
"l.F.S.S.A.A./ J.z.' M.~ ! ~ ~ M.A.' A.L.D.N.! t O +.:XwX;X).V f J.M.R t t 1XsXfXgXaXwXC h M.D.' W N.( ! ! ' D.A.! A.~ A.F.A.A.D.",
"/ / / k.A./ M.A.A.A.! K.A.' _ M._ A.A.M.M.' M.( $ +.=X;X].C I V.L.L.J.k # @.}.9XsXaXuXD f A.S.E ! _ ! E ' z.' z.k.k.A.l.z.M.D.A.",
"/ / S.S.F./ k.S.D.A.z.A.J.V.C.m._ M.M.M.M.J.M.! t [ |.).V I ( J.K.L.A.! * [ Q.Q.*.F D U ! ' ' W j ^ ! ~ k.S.~ ! ~ ! ^ ' M.A.A.A.",
"j.A.F.z.z.A.l.A.D./ ' M.P.J.( J.J.! A.M.A.M.~ Z =.@X|.#.* _ J.J.L.I.M._ # N Q.Q...A # W J.A.m._ T ( ' k.A.A.k.! ! ^ ^ ' z.D.M.S.",
"S.A.A.J.z.K.N.M.A.~ ' A.J.J.A.A.A.M.' _ A.^ f =.2XtX:X*.* W P.J.J.J.V.W # ] Q.).}.[.+.Z ( A.^ ) W A.' z.' l.A.' ' ' A.' ' A./ S.",
"F.I.' H.' D.A.M./ ^ D.K.M.k.' A.A.A.C._ ' ~ Z =..X.X/.} s W C.' A.C.J.M.s A ] } *.*.+.C T ' ! ' _ m.^ M.' D.V.^ E T / ! ' A.l.l.",
"K.G.F.K.A.J.A.A.^ ' D.^ / S.D.M.M.! J.A.A.S.T y $ $ $ y Q A.J.V.V.J.L.J.( t # $ $ $ $ Y ( ( T T T ! ' ' T ' W ! ) ! ' M.M.D.D.S.",
"I.F.D.A.D.F.A.' k.K.F.~ D.A.J._ ' V.' ' M./ ' ^ ! ! E ( ( ( M.J.L.D.M.( _ T W ! / ( T R ( ' ' ( T ' ' M.' / _ ! ! T E A.A.A.A.F.",
"F./ M.S.S.D./ D.S.M.! ^ _ ! k.M.M.m._ A.A.M.A.A.' z.^ ! ! ^ ' D.M.' ' ! _ _ ! k.F.D.~ R ( V.C.Q ! ' ~ ! W ( N.A.! ! A.A.A.D.D.L.",
"M.A.A.A.l.A.D.J.A.N.' A.T Y ! ! _ _ z.' M.( A.A.^ / A.Q ! ' ' ' ^ ^ ' E ( C.M.^ ' ~ ' W ( ! T T ! E ! ' ! T M.D.~ K.D.M.' L.K.J.",
"A.M.A./ ' / A.^ k.` ' ^ / z ! ! ^ M.A.M.' T M.! ' M.' T W T T ' ^ ! ! k T ( ! W ! ! ' ' ' Y g I T I W l.~ ! ' ! x / M.M.M.A.D.A.",
"N.z.A./ ' M.A.A.K.D./ F.F.A.M.( _ ' M.M.' M.M.! T ^ ! T T T ( ~ / z ^ M.' ^ _ R ! A.~ ( _ W Y f f j T A.D.^ ! E ! A./ ' M.A.D.A.",
"~ / A.M.` D.I.F.S.D.F.A./ ' M.! ' A.k.' M.A.^ ' ' ' W I k _ ' W ! ! ! ( ~ ! ( Y ' ' ! _ _ ' R f f j W ' A.' A.! _ / D./ k.D.' ) ",
"' D.z./ ' F.S.A.I.K.A.M.^ ' _ ( A.^ ^ ' / A.' ! _ ( ! h l ' T T ( ! Y j E ) W R W R k ! ! E j I H T M.M.M.' D.z.A.A.K.F.z.A.A.' ",
"^ ~ ^ S.l.k.S.S.A.k.E ! ! ' _ ^ ' ~ ^ _ ~ ! T ! _ Q T j I Y Y ! ! W T j T I Y W Y Y T E E W h j I ^ / A.! ! A.z.! / C.J.D.k.~ ^ ",
"/ / A.G.A./ l.F.K./ ^ ' z.A.' ' ( ! ! ! ( ! I ^ _ ' I ( k Y Q ( ! ! ! T ! R T T ! T W ! E I I I ( ^ F./ ' ! ' ! ~ ! _ J.A.k.~ ' ",
"D./ l.A._ _ A.A.D.z.' A./ ' _ D.' T ' ' ! T I I _ ^ ^ ! ~ ~ ' ( ( ! ^ ' ' ' ' ! ! ! ! T T ! T I _ A.K.N.N.! ) ! ! ( I T ^ ^ E / ",
"' ~ D.A.M.' A.' ' ( ^ ' ^ M._ z.A.Y ( B._ W R Q Q ( ! ! ' ^ ! / I ! M.( T M.H.E _ ! z ! / ' _ T ' K.A.' ' ^ ! ' / ! W ! A.S.J.J."
};
