/* XPM */
static char *bc06e0dcca174cacdd11dcbfe709c548X5dAvSMfd9SjzYPu[] = {
/* columns rows colors chars-per-pixel */
"64 64 236 2 ",
"   c #250C09",
".  c #2C0E0B",
"X  c #2A120F",
"o  c #34110D",
"O  c #3A140F",
"+  c #2F1410",
"@  c #341512",
"#  c #3D1511",
"$  c #371815",
"%  c #3C1A14",
"&  c #382518",
"*  c #3B291A",
"=  c #43160F",
"-  c #431611",
";  c #4A1712",
":  c #441914",
">  c #4C1A14",
",  c #451C19",
"<  c #4C1D19",
"1  c #531C15",
"2  c #5A1E16",
"3  c #541C19",
"4  c #5B1E19",
"5  c #621F16",
"6  c #641F1B",
"7  c #442419",
"8  c #4C221B",
"9  c #4B2C1D",
"0  c #54221C",
"q  c #59251A",
"w  c #5C221C",
"e  c #512D1F",
"r  c #63221B",
"t  c #64251B",
"y  c #6C231C",
"u  c #6D291E",
"i  c #73251C",
"p  c #7A261B",
"a  c #742A1E",
"s  c #7C291D",
"d  c #552720",
"f  c #592521",
"g  c #4D3823",
"h  c #553421",
"j  c #593924",
"k  c #632421",
"l  c #6B2522",
"z  c #672A25",
"x  c #6C2B23",
"c  c #742622",
"v  c #7B2622",
"b  c #752A23",
"n  c #7C2B23",
"m  c #742C2A",
"M  c #7C2B2A",
"N  c #6B3425",
"B  c #6A3826",
"V  c #7D3326",
"C  c #73352A",
"Z  c #783828",
"A  c #793D31",
"S  c #5B462B",
"D  c #594E30",
"F  c #5D5738",
"G  c #65442A",
"H  c #6C442B",
"J  c #74462C",
"K  c #6B4E32",
"L  c #665937",
"P  c #6B5935",
"I  c #6D5E3A",
"U  c #765C38",
"Y  c #5F603E",
"T  c #63623E",
"R  c #6B643D",
"E  c #6B6A3E",
"W  c #74643C",
"Q  c #7A673D",
"!  c #746B3E",
"~  c #5F5E40",
"^  c #5F6140",
"/  c #656542",
"(  c #666943",
")  c #6C6C43",
"_  c #6A6A44",
"`  c #726E42",
"'  c #796B41",
"]  c #6E7145",
"[  c #6D7449",
"{  c #747345",
"}  c #7A7544",
"|  c #767947",
" . c #7C7A46",
".. c #737649",
"X. c #787749",
"o. c #757A4A",
"O. c #7B7C49",
"+. c #7A7D4A",
"@. c #757F50",
"#. c #84271A",
"$. c #832A1D",
"%. c #8B2B1D",
"&. c #942D1E",
"*. c #9A2F1F",
"=. c #822725",
"-. c #832B24",
";. c #8A2B25",
":. c #822C2C",
">. c #8C2C29",
",. c #932F22",
"<. c #992F20",
"1. c #942D2A",
"2. c #9B2E2C",
"3. c #833225",
"4. c #8B3225",
"5. c #823B26",
"6. c #83342B",
"7. c #8B352A",
"8. c #853B2D",
"9. c #8E3A2D",
"0. c #943324",
"q. c #9B3323",
"w. c #9B3827",
"e. c #933629",
"r. c #9B342A",
"t. c #933A2D",
"y. c #9B3B2D",
"u. c #8B3231",
"i. c #883830",
"p. c #923730",
"a. c #953E31",
"s. c #9B3E31",
"d. c #A02F2E",
"f. c #A33524",
"g. c #A3312E",
"h. c #AB3629",
"j. c #A43B2B",
"k. c #AC3C2B",
"l. c #B23827",
"z. c #B23C2C",
"x. c #BA3C2B",
"c. c #A53231",
"v. c #AB3232",
"b. c #A33B31",
"n. c #AC3D34",
"m. c #B33935",
"M. c #B43B35",
"N. c #BA3B31",
"B. c #C13E2E",
"V. c #8E4A2F",
"C. c #874537",
"Z. c #8D4334",
"A. c #924435",
"S. c #9D4233",
"D. c #974A38",
"F. c #9C4B3B",
"G. c #AB412E",
"H. c #B5412E",
"J. c #BB412D",
"K. c #A44334",
"L. c #AB4434",
"P. c #A24D3D",
"I. c #AA4839",
"U. c #B44534",
"Y. c #BC4533",
"T. c #B84737",
"R. c #BB453D",
"E. c #B44A3A",
"W. c #BB4C3B",
"Q. c #BD513E",
"!. c #84633A",
"~. c #98663E",
"^. c #C4432D",
"/. c #C8442F",
"(. c #C44532",
"). c #C74635",
"_. c #C54935",
"`. c #CC4B35",
"'. c #C44D3B",
"]. c #CB4D3A",
"[. c #D14D37",
"{. c #C4513E",
"}. c #CC513D",
"|. c #D4523D",
" X c #D8543F",
".X c #BC4940",
"XX c #AD5341",
"oX c #BB5241",
"OX c #B55945",
"+X c #837745",
"@X c #827C46",
"#X c #827E49",
"$X c #9A744D",
"%X c #AD7951",
"&X c #C34D41",
"*X c #C45342",
"=X c #CB5543",
"-X c #C65947",
";X c #CD5946",
":X c #CD5B4B",
">X c #D35542",
",X c #D95741",
"<X c #D35946",
"1X c #DC5B45",
"2X c #D65C49",
"3X c #DB5E49",
"4X c #E05D47",
"5X c #E15E49",
"6X c #C8654D",
"7X c #D5624B",
"8X c #DB634D",
"9X c #DA684F",
"0X c #C16E51",
"qX c #D56A53",
"wX c #DB6B53",
"eX c #D96954",
"rX c #DD7258",
"tX c #E3634E",
"yX c #E66651",
"uX c #E86651",
"iX c #E56A54",
"pX c #E86A54",
"aX c #E06F59",
"sX c #E3725A",
"dX c #E0785C",
"fX c #77814E",
"gX c #7D824C",
"hX c #7D8451",
"jX c #83834C",
"kX c #89854C",
"lX c #84894E",
"zX c #8B8A4E",
"xX c #848A52",
"cX c #8B8D51",
"vX c #8E9254",
"bX c #AD8355",
/* pixels */
"#X+.+.{ ..o.+.jX..) o.{ ] ` gXjXjX+...X.{ o.^ / / ( jX+.}  .{ { +.{ +.+.] ..{ o...] ) ) gX+.#X .} kXgXjXxX..o.+.vXX.+.} { o.+.+.",
"} +.( { { _ { ..{ { X.gX{ | xX#XjXlXgX) ) ) F / / ) @.o.o.o...gX .| jX .{ { ] E ] ] ( ( { +.#X#XzXjX .#XgX) o. .o.) +.+.| ..gXgX",
"gX..) ] ) [ R } { { o.{ +.o.lXcXgX .{ _ ) ( T ( ..gXo.{ ..gX] | jX+.gX#X .{ ) ) { _ ( ( ( +.jX#XjXkXjX+.gX{ o.{ { o.+.lX` ) { o.",
"| ` _ ( ( [ { +.+.+.hX{ ..X.} jXjXjX{ o.o.....) o.o.+.+.....o.+.+.....o.gX+.{ ..( T T ) o.gXlXzXjXkXjX| jX{ { { +...] gXjXgX{ ` ",
"+.o.X.{ ] ..{ { { ] ) { { |  .#X@X .| gXo.X.fX[ [ o.gXjX+.( ` o.{ ) _ o.o. .@X{ ] ) ( ( / +.lXzXkXkXlXjXjX} } +...{ { o.{ | { ..",
" .{ ..X.+.+.#X+...E E  .{ +.|  . . .o.o.gX+.[ ..) o.gXjXjX{ X.+.gXX.) +.{ #XlXjX+.+.{ T (  .#X#X#X .+.+.jXlX} | { +.+.+.....| jX",
"+X{ o.{ { { +...T T ..gX| +.o. .#XlX| ....o.| o.hXo.) jX+.gXjXgX( o.o.{ jXjX . .xXjX{ ( ..o.{ | | { +.#XjXgX@X| } } +.jXo.} #X@X",
"jX#XjX#X} } ` ) ( E } ..` +.+.#X..gXo.+.hXxX..o.@.o.{ gX+.+.+...E _ ..} lXjX} +.jXjX{ { +.+.gX{ `  .} | jX#X#XzXjX@X#X .#X} @X .",
"#X} R W U P U U !.!.U U R L L ( F F P U W W L F T ( L P U I I I D D L } P L P Q W Q K D F ` W P P P K U ~.!.!.!.!.U Q U !. .} | ",
"} } S q V V n u 4.w.s u H j g S & % 0 x V V V w h S q t a a u q : % j L & % q b V V V q j D q t a a u b H.j.0.4.4.3.4.s Z R E { ",
"{  .H 7.*X=XJ.,.p i 5 > u a 0 % # 1 i j.=X;X*Xe.w % 1 p q.q.s r - ; 8 7 O 1 i K.;X;X*X4.0 , 1 s q.q.p n '.<X].x.^.}.Y.$.y J R ) ",
"o.` H n U.8X1X(.0.i r r ,.,.y 1 2 i j.<XyXtXU.-.1 3 K.W.k.k.U.s 2 y y 1 2 i L.2XuX3XL.s 1 q I.W.j.G.K.a y.<XtX1X4XtX3X{.U.K.I ) ",
"kX| J %.H.tXyX1X].U.I.I.'.'.y.b s.E.<XyXyXtX'.0.5 b =XE.b t.2XU.-.w.e.b K.E.<XyXyX8XW.4.2 V ;XK.a S.W.4.L.3XyXyXyXyXyXyX}.S.' | ",
"gX{ J f. XtXuX1X}.W.Q.8XuXyXW.-.K.W.<XyXyXyXtX'.4.4.=XI.6.t.oX2XW.=XL.-.I.W.2XyXyXyXtXW.;.e.;XK.6.a.L.U.3XuXuXtX1XtX=XW.t.B } +.",
"{ { G 6.oX=X=XY.q.s -.W.3XtX=X0.7.y.*XiXpXiXiXiX'.j.8XiX9XE.y.8XiXiX'.4.7.y.;XiXiXiXiXiXW.L.8XiX9XI.K.7X<X<X<X'.Y.W.0.i 1 9 ` gX",
"#X} j : w b -.;.%.%.-.3.j.*X-XY.6XqXeXrXrXrXrXrX;XY.9XsXaX=XY.wXdXsX=XY.6XqXeXaXaXaXaXrX=XW.eXsXrX{.T.-Xw.;.,.q.0.4.;.%.y 9 E { ",
"jX{ g - 1 y q.l.Y.=X'.k.i t x 9.qX:X.X.XR.R.R.R.b.4.U.R.R.b.0.{.wX:Xs.S.qX-X.X.XR.R.R.R.y.e.U.R.R.r.b x i 2 p H.{.{.=X=Xj.C { | ",
"{ ) j 2 p f.].,X5X5X|.^.K.N 1 b W.:X:X;X'.N.v.v.>.c 2.>.=.-.1.m.&XM.;.3.{.:X:X=X'.N.v.v.-.v 2.;.n r # O > > y w.U.|.tXyXW.5.' lX",
"{ ` B p h.].tXyXuX5X[./.7XP.r y 0.*X:X-XI.0.g.v.>.y -.-.=.1.v.v.v.v.;.i y.=X:X*XK.,.d.v.;.i -.=.y 1 q N 1 1 r -.k.^.1XyXE.B ! +.",
"o.| H 0.[.tXyX2X*X;X3X XwXP.w 1 4 ;.c.r.c 6 1.g.v 2 r -.2.d.v.v.2.2.v 1 r 1.b.2.y 6 2.d.v 1 r -.i 2 8.6X9.V 4.U.1X|.5XyXI.h E } ",
"gX} H 9.=X3X<Xk.v 9.3XtXsXF.1 O O 1 -.2.1.1.2.=.1 O # 2 r v 2.1.i r 1 o # 4 ;.2.1.1.2.v > o # 4 4 ; C qX7X=X*X2XtXtXyXyXW.Z ! jX",
"gX .j > b 0.w.;.y.=XyXpXsXA.# o o # w b v v i 1 O . o O - 4 y 3 - # # o o - r b v b i > o o o O O o C wX8XK.4.U.8XtXtXtXW.5.` o.",
"+.+.g = a U.W.W.<XyXyXyXsXZ.# 1 s t.P.XXXXK.b 1 - O ; > Z P.XXZ.8 C F.A.4.t.P.XXXXK.u 1 - O ; ; O o u W.a.w ; r 6.a.a.a.4.N E fX",
"o.gXS y z.8XyXyXyX3X'.>X2X6.- y h.'.<X7X2X'.-.V Z.8.-.y i.OX:XoXx S.7X>XY.'.<X7X2XR.n 8.Z.8.-.r # O 2 p r > O O 0 9.a.e.5.K { hX",
"} ! H $.J.1XyXuX3XU.,.f.f.y ; y d.v.N.B.x.r.c K.qX:Xz.-.c >.v.c.c q.B.x.v.v.N.B.z.1.b I.qX;Xz.n > > w z a y > ; n ;XtX].S.I { cX",
"@X@XJ a ,.J.=X;XL.$.i r > ; 1 y 2.v.c.g.1.y 4 -.n.M.v.g.g.c.v.d.c ;.g.g.v.v.g.g.>.r 4 >.n.M.v.d.v r 8.-XH.%.i v y.3XyX X0.h ` lX",
"} #XQ J $.p n u 1 - = O O O : y 2.c.;.r > # O - c g.v.v.v.v.v.2.i y y v g.c.-.6 ; O O ; v c.v.c.2.v Z.qX_.<.L.=X<XtXyXtXL.B !  .",
"+.jXP C.K.p r 1 > 1 2 5 p 2 O > c n r ; : o o - r n =.n n =.v 6 > - - 1 v n 4 ; - o o - r n =.n n y Z.wX1XJ.].yXyXyXyXyXE.B } jX",
"lX#Xj a.<XU.s.n y i #.q.W.3.O 0 Z.F.6.y r 6 y 6.F.F.D.7.=.c r y > O O w A.F.3.y r 6 y 9.F.F.D.>.=.i Z.rXiX,X X}.{.3X1X3XI.j  .+.",
"jX@XH y.1XtX8XG.#.#.*.J.7XA.: u XX7X].q.i >.c.&X9XwXwXR.v.;.p f.=.4 1 x OX7X_.1.i 1.b.=X9XwX9XY.v.-.A.rXpXtX Xf.4.=XY.}.S.9 { gX",
") jXH 0.[.5XtX`.f.&.l.^.9XP.1 ; x k.N.1.r y 2.N.(.`.<X).h.-.c g.c.2.v 3 n z.N.-.w i g.N.).].<X(.c.=.8.6X8X3X|.w.V *XK.W.K.e { +.",
"+.jXH y.>X|.1X].f.#.q.J.9XP.w 2 y 2.v.v ; 6 1.v.v.v.M.v.;.r y 2.v.v.d.-.i g.v.c : r 2.v.h.v.M.v.=.r w x k.f.U.=X;X8X2X2XI.B } jX",
"#X+.H S.8X|.U.'.G.w.Y.).9XP.r y ;.d.1.6 o ; >.v.2.v =.2.y - > v d.v.v.g.1.g.>.4 o 1 1.v.1.v -.2.6 - O O 2 1 s W.tXyXyX,Xw.h { cX",
"jX .H S.2XL.a E.=X{.3X1XwXD.> 1 y =.i > o O i ;.i > > 6 > o o > v ;.;.;.;.-.y ; o - c ;.y ; 1 6 - o o o o o = u t.K.K.y.Z D } zX",
"jX .G 7.U.0.V Q.<X*X>X*X:X8.o o - y $.y 4 4 i v r # o # - ; 3 r V b r r r p s y 3 4 c v 4 O o # o o = 1 ; - - - 1 V u r B R  .kX",
"gX} j 1 %.k.}.;XI.y.J.0.w.y o # w q.x.z.c.1.1.2.>.6 - 4 r y 1.z.'.S.b y y f.x.z.c.1.1.2.-.4 - 4 ; o r j.%.y w r 7.oXt.-.u h ! +X",
"{ ` g O 1 -.J.j.K.<X>Xz.a : O 1 r 2.x.).'.-.y >.g.>.y ;.n 4 6 g.M.*X.X>.i g.x.`.R.n i 1.g.-.y ;.y - N ;XH.%.i 9.;XtX2X;XK.B ! { ",
") ` j 2 i j.}.*X;X5X[.^.I.N O : r 1.1.w.M.1.4 r >.2.c 2.2.c 4 v g.R.R.2.c 1.1.r.M.;.1 y 1.1.c 1.v ; C 6Xk.f.U.=XtXyXyXyXE.B  ...",
"] _ B s k.|.tXuXyXtX|.).9XD.> : > 6 y v v.c.v v 1.2.c 2.v.2.-.;.g.v.v.1.4 6 r =.v.d.v v 2.1.c 1.v ; C 6XH._.1X5X X}.K.K.e.B } +.",
"gXE B 0.|.tXyXuXuXuXtX XwXF.1 ; - - 1 y =.=.=.;.1.-.y -.1.1.>.=.=.>.1.v ; - 1 y =.=.=.>.1.=.y -.i 1 A 7X`.1X5X'.k.l.i n 4.B } | ",
"jX) K Z.=XyXyX2X;X<X5XtXsXZ.O : u y y 4 - # # > r c n n v y 4 - # 4 v n b y y 4 - # # 1 y b n n y w Z.qX X1X,XH.e.J.f.W.I.B } gX",
"jX@XQ K 6.;X2Xa.b 4.Y.3XwXZ.- u E.n.2.-.2 O o # y b.*X=Xn.;.4 o o c U.=X*Xb.2.=.1 o o - c n.=X*X3.r 9.qX3X3X2X=X*X<X=X2XL.B  .cX",
"lX#XK q i 7.7.w - 1 n t.T.e.2 a Y.B.v.c.=.- ; y b.=X]._.M.g.v # O t.|.`.).v.v.g.v - > c n.>X[.).-.w 3.T.y.7.9.9.t.9.t.U.0.e ` lX",
"+. .G i f.K.K.a.9.a.K.I.{.y.r y ;.,.r.v.1.4 4 ;.N._.w.-.-.1.1.4 y n.U.0.;.;.2.v.>.1 r 1.M.U.0.%.r : 2 i i r p w.K.K.w.k.%.9 `  .",
"jX{ H $.k.W.>X,X3XyXyXyXsXP.w w 0 y >.c.1.l l >.c.g.v c c b c l >.r.-.w 0 l >.c.>.t l >.c.1.b l < % > r 5 2 %.`.tXtX X/.&.N @XzX",
"+.#XH p ;.4.f.l.].tXyXpXsXF.0 0 8 m u.u.m z M u.u.u.u.u.u.z , d M x f f d M u.u.m z M u.u.u.u.6.z 0 b q.1 # s _.tXyXtX Xf.Z #XjX",
"#XkXJ %.Y.W.b a j. XtXpXsXC., 0 x M :.m f d m 6.6.:.:.6.:.x , , m f d m m M M m f f M u.:.:.:.M k 8 n k.v t -.U.tXuXyXtXK.h } lX",
" .} H ;.`.3XoXE.=X1XtXyXrXC.@ $ , , , < 8 , 0 k 0 < < w k 0 $ $ 0 8 , , , , < < 8 , f k 0 , < 0 , $ N -X*XQ.{.;XtXtXyXtXE.Z @XjX",
" . .G 4.].U.K.K.K.K.L.L.A.d @ @ + # < z A A A m w $ + $ z A A B q < , # + $ 3 x A A A m 0 @ + @ + X 8 8.S.K.S.S.S.K.'._.F.!.+.jX",
"+X@XG t.<XL.t.n y i #.&.6.q : < < w l C C.F.K.p.l < , $ z Z.F.F.m k 0 < < w l C C.P.K.7.l < , @ @ @ 7 C -.i y r a t._.z.5.R | kX",
"kX#XH y.3XtX3Xk.#.#.*.x.7XD.8 0 b :.l < < n 0.>.l w l , < x 7.7.:.:.l w M M l < 0 3.e.>.l w l : : % B 6XY.&.s 3.j.<XtX[.%.h ! zX",
"cXzXH 0.[.tXtX`.q.&.l.^.9XF.0 0 b :.M l 0 t b M l w c w l M :.:.:.:.l w M :.M l 3 t v M l k b w < < A qX`.q.L.<X3XtXyX Xq.B Q #X",
"cXzXJ y. X|.1X[.f.#.q.J.9XF.0 < w b :.M b c k w 3 w v v M :.:.M l c l 3 w M :.M b l r w 0 w M b w < 8.wX3X(.}.tXyXyXyX5XL.B +XkX",
"vXkXJ S.3X|.Y.'.k.0.U.).9XD.: @ # 3 c c r w < # @ # 4 v :.c 4 < # < < @ # 4 c c r w > # @ : r c 4 > A rXiX1X X_.U.].|.1XK.j } zX",
"zX| H S.2XU.n E.=X'.3X1XwXZ.o     o 1 4 ; - O .     # 4 6 4 - o   . .     o 3 3 ; - O .   . # 4 1 # C rXpXyX Xf.i 0.q.'.S.9 } vX",
"gX .H a.*X$.1 a.*X*X=X;X6XJ & & & & 9 h h 9 7 * * & * 9 e e e 9 & & & & & * 9 e h 9 * & & & & 9 e 7 H 0X-X*XU.s > w p L.A.S  .cX",
"gX .S 9.=X0.a b b n ;.w.~.' E E E ] { { ` I ] R ) { ) T T R R { E T E F L T R E E W ) ) ) F F F L F ` $X8.v r 1 r b j.h.V.W jXjX",
"gX@XH S.3X<X*Xe.p p #.k.6XbXgX..o.gXgXgXgXgXgX{ ) | { _ ) ] ..} } ! | gX+.o.+.) { jX} ..o.] ( ~ Y / +X0XG.#.r r 4.W.1X_.4.j  .jX",
"| } J e.>XtXtXY.&.%.f.^.9X%XgX{ +.jX#X+.gXjX| +.+.+.] ( E o.+.] { { { ..} { ..( +.+.{ o.o.+.) F F T $XrX_.&.w.E.{.tXyX|.,.j ` { ",
"+.#XJ e.|.1XtX`.f.%.f.^.9XbXX.{ jX| | +. .jX+.{ o...{ Y T +._ ) ..] ( T ` X.] [ ) ) E { { ` T / ~ ) $XrX|.k.'.yXyXyXyX1Xj.B } +.",
"| } H S.1X[.}.].h.%.f.^.9X%X+.| +.} | o.} { ) { o.[ ( T / ( ( { { ] _ T ) / ( ] ( ( _ ` ` ] Y T ( | $XdXyX X X1X<X1X4XtXI.B ! | ",
"+.} H S.8X{.w.W.T.k.>X[.wX%X+.+...{ { { ..{ ( | o.+.( ..E ( [ ..{ { { _ { ) _ ) { ) ] { ` ( ( / ..| bXdXiXtX Xk.0.l.J.>XK.e R +.",
"lX} J a.=X0.t E.3X<XtX3XwX%Xo.jX+.) +.+.{ ) ( ( o.| | { } } +.....{ | +.+.+.+.{ { { { ) _ { ) / o.jXbXrXyXtX|.q.2 a -.E.S.9 R  .",
"+.} S b k.f.S.;X*XU._.L.Q.$Xo.#XjX( ..fXo.] ) [ ....{ { +.| { } ( { gX..) gXjX` o.{ E { } +.o.) +.cX$X;X|.Y.'.W.S.K.I.'.y.j  .xX"
};
