/* XPM */
static char *_7c47c0172ba499eeba9f5b3c3011e93Ry6NfoqRWL7R1zrQ[] = {
/* columns rows colors chars-per-pixel */
"64 64 238 2 ",
"   c #250C09",
".  c #2A0E0B",
"X  c #34110D",
"o  c #3A140F",
"O  c #331512",
"+  c #3D1511",
"@  c #331D14",
"#  c #3C1914",
"$  c #352114",
"%  c #3B2216",
"&  c #392718",
"*  c #3D311E",
"=  c #441711",
"-  c #491714",
";  c #431A15",
":  c #4B1914",
">  c #441D19",
",  c #4C1E19",
"<  c #531B16",
"1  c #5B1E16",
"2  c #541D19",
"3  c #5B1D19",
"4  c #631F1B",
"5  c #651F1A",
"6  c #452419",
"7  c #4B231B",
"8  c #49261A",
"9  c #54221C",
"0  c #5C221C",
"q  c #522A1E",
"w  c #5C291C",
"e  c #622017",
"r  c #6B2217",
"t  c #63221B",
"y  c #6C231D",
"u  c #65291E",
"i  c #6C291E",
"p  c #73251E",
"a  c #76281D",
"s  c #7C291E",
"d  c #562721",
"f  c #5C2420",
"g  c #493521",
"h  c #593925",
"j  c #642522",
"k  c #6B2522",
"l  c #632B23",
"z  c #6C2B23",
"x  c #6D2C29",
"c  c #742522",
"v  c #7B2622",
"b  c #742A24",
"n  c #7C2A23",
"m  c #742B29",
"M  c #7C2C2A",
"N  c #6B3426",
"B  c #693827",
"V  c #7C3226",
"C  c #773628",
"Z  c #7E3830",
"A  c #56472B",
"S  c #5D422A",
"D  c #554D34",
"F  c #5C5738",
"G  c #66452B",
"H  c #76462D",
"J  c #6B4531",
"K  c #7A4B32",
"L  c #665935",
"P  c #645E3A",
"I  c #775534",
"U  c #5F603E",
"Y  c #67643B",
"T  c #64623D",
"R  c #6A653C",
"E  c #6E6A3E",
"W  c #72653C",
"Q  c #7B673D",
"!  c #736A3E",
"~  c #5F5E40",
"^  c #5F6140",
"/  c #656541",
"(  c #666942",
")  c #696A43",
"_  c #6C6C43",
"`  c #7D6440",
"'  c #726E42",
"]  c #7C6D42",
"[  c #6D7145",
"{  c #6C7349",
"}  c #747345",
"|  c #7B7544",
" . c #767947",
".. c #7C7A46",
"X. c #727649",
"o. c #787749",
"O. c #757A4A",
"+. c #7B7D49",
"@. c #832A1E",
"#. c #892B1E",
"$. c #932D1E",
"%. c #822725",
"&. c #842A24",
"*. c #8A2A26",
"=. c #832C2A",
"-. c #8D2C29",
";. c #952D24",
":. c #942C2A",
">. c #9B2E2C",
",. c #833326",
"<. c #8D3326",
"1. c #84332B",
"2. c #8B332B",
"3. c #853A2D",
"4. c #8C3B2E",
"5. c #943224",
"6. c #9A3324",
"7. c #9D3927",
"8. c #94342C",
"9. c #9C332C",
"0. c #943B2E",
"q. c #9B3A2A",
"w. c #843732",
"e. c #8A3232",
"r. c #8D3E31",
"t. c #943231",
"y. c #933C30",
"u. c #9B3E32",
"i. c #A02F2E",
"p. c #A43424",
"a. c #A73826",
"s. c #A4312E",
"d. c #AC332E",
"f. c #A33C2C",
"g. c #AB3A2B",
"h. c #B0352E",
"j. c #B33C2B",
"k. c #BB3C2B",
"l. c #A53130",
"z. c #AB3231",
"x. c #A43D34",
"c. c #AC3B35",
"v. c #AE3D38",
"b. c #B23631",
"n. c #B43A34",
"m. c #B93C36",
"M. c #B43D39",
"N. c #87432E",
"B. c #94492E",
"V. c #8D4133",
"C. c #834934",
"Z. c #944235",
"A. c #9B4134",
"S. c #944A37",
"D. c #954C3B",
"F. c #9A4C3C",
"G. c #865438",
"H. c #9A553A",
"J. c #BA412D",
"K. c #A54435",
"L. c #AB4434",
"P. c #AB4638",
"I. c #A84A39",
"U. c #B34533",
"Y. c #BC4332",
"T. c #BB4935",
"R. c #B3443B",
"E. c #BC443D",
"W. c #B54C3B",
"Q. c #BA4D3C",
"!. c #AD553A",
"~. c #8F653E",
"^. c #C34533",
"/. c #C84635",
"(. c #C54936",
"). c #CC4A34",
"_. c #C44B3B",
"`. c #CB4D3B",
"'. c #D24E39",
"]. c #C3523E",
"[. c #D3513C",
"{. c #985742",
"}. c #BB4E42",
"|. c #AA5542",
" X c #BA5845",
".X c #856B41",
"XX c #886A42",
"oX c #996947",
"OX c #827544",
"+X c #827C46",
"@X c #877849",
"#X c #837E49",
"$X c #9A774D",
"%X c #977850",
"&X c #A76E49",
"*X c #B9674A",
"=X c #A5744C",
"-X c #A67952",
";X c #B87655",
":X c #CB4F42",
">X c #C55343",
",X c #CB5443",
"<X c #C75B48",
"1X c #D35542",
"2X c #D85743",
"3X c #D45945",
"4X c #DB5A45",
"5X c #D45C49",
"6X c #DC5E4A",
"7X c #E15F49",
"8X c #C2624C",
"9X c #CD634C",
"0X c #D4634E",
"qX c #DE664F",
"wX c #CD6650",
"eX c #D56952",
"rX c #DA6C52",
"tX c #C77857",
"yX c #DE7359",
"uX c #E2624D",
"iX c #E66550",
"pX c #E86852",
"aX c #E07057",
"sX c #E2755B",
"dX c #77814E",
"fX c #7D824C",
"gX c #7B8551",
"hX c #83834B",
"jX c #8A844B",
"kX c #85894E",
"lX c #8A8A4E",
"zX c #92864E",
"xX c #838550",
"cX c #858C52",
"vX c #8A8D51",
"bX c #918A52",
"nX c #939554",
"mX c #AB8558",
/* pixels */
"#X+.#XG : t @.J.f.P.6X2XT.oXhXhXhX+.X.} }  .^ / / / xX+.| ..} } +.} +.+.[ X.}  .X.[ _ _ fX+.#X..| jX+XI u t &.Q.<X(.j.@.8 ) +.+.",
"| ..=XD.t @.j.1X3X6X6X)./.wXmX#XhXkXfX_ _ _ F / / _ O.O.O. .X.fX.. .hX..} } [ Y [ [ / / } +.+X+XkXhXOXQ S = - 0 b n p 1 6 / fXfX",
"+. .;X|.s j.1XuXiXiXuX[.).rXmXvXfX..} ) _ / T / O.fX .[ X.fX[  .hX+.fX#X..} _ _ } ) ( ) ) +.hX#XhXjXH.B.w + , < 0 t r 1 6 T } O.",
" .' ;X|.&.J.'.[.T.u.I.6X6XyX-XhXhXhX}  . .X.X._ O.O.+.+.X.X. .+.+.X.X. .fX+.} X./ T T _  .fXkXvXhXzX*XY.@.1 i A.P.P.f.@.w } } ' ",
"+.+.;XI.t #.p.p.$.&.K.uXpXsX-X+X+X.. .fX .o.dX{ { O.fXkX+./ '  .} _ ) O.O...+X} [ _ ( / / +.kXlXjXzXtX].p.6.K.6XiX4X).p.N ! } X.",
" .| ;XD.o 1 5.7.7.Q.uXiXpXsX-X...... . .fX+.{ O._ O.fXfXhX} ..+.fX.._ +.} #XkXhX+.+.} T ( ..#X#X+X@XtXQ.g.[.uX7XuXT.a.$.N W  .#X",
"OX} ;XF.1 8.,X6X6XuXiXiXuXsX-X..+XkX .X.X. . .O.gXO._ xX+.fXkXfX)  .o.} hXhX....cXhX} ) X.O.}  . .OXtX1X`.uX2X(.3X4.p &.N ! #X+X",
"hX#X;XW.5.,XuXpXpXuXuX4X[.rX-XhXX.fXO.+.gXcXX.O.dXO.X.fX+.fX+.X.R _ X.| kXxX| +.kXkX} }  .+.fX} ' @XtX3X[.6X^.q.,XL.x.P.C Q #X..",
"#XOX;X|.<.`.uXiXiX2XY.g.^.eX$X{ X. .+.+.xXcX{ { O._ ( [ +.O.O.fX} } } hX..fXhXlXxXkX_ _ T  .fX} X.@XtXqX6XuX1X>X5X3X3XQ.B ! |  .",
"| +X$XG.a a.`.uXuX_.$.@.<.oXOX( _ +.| ' fX+.X.X.} _ T } }  .gX .+.fX+.lX+X#XvX| hXhX} } } ..| .. .+XH.K.T.[.`.K.A.0.L.f.h T _ ' ",
"} #X+XQ C a.`.uXiX,X7.@.,..XXXoXoX=X-X-X&X$X%X| oXoXoX$X=X=X-X=X=XzX| ~.-XmXmX&X&XmX=X&X-X-X-X-X$X@XH.K.U.[.`.K.u.4.f.q.S ( ) _ ",
" .} R I H.`.2X4X7X7X,Xa.f.K N.W.wXsXyX8XK.I.{.I L.eXsXsXaXrXrXrX9XoXG ,.<XrXaX].I. X XU.0XsXsXeX|..X8XuXuX7XuX4X2X1X).K.L F T _ ",
"jX+.h 9 4.3X'.J.j.`.uX,X&.9 i 5.U.5X0XA.0 t u 9 q.5XpXuX[.J.j.j.5.i 0 y 5.J.3XK.0 9 V <.].uXuXQ.l 9 }.uX[.`.6X'.).).).7.6 % T +.",
"fX} G 1 1.5X3X<.e u.iX,Xn t K.,XU.x.5X,X,.&.*.n ].uXiX2Xj.&.&.n r : b Q.a.5.].L.e u Q.Y.^././.).K.t W.[.a.f.6XuX7X7X6XU.1 ; ! +.",
"} | G t i u.,X<.4 u.uX,X&.y W.Q.,.,.5XuXf.L.L.n (.7XiXuX1X}.}.W.i o Z ,X&.t W.5Xf.8.6X7X4X_.b._.>XV Q.L.r a (.uXpXuX4Xg.t 9 ! fX",
"..OXH @.5.a.Y.&.t q.'.U.r y Q.>X1.0 A.5X,X,XI.< p f.(.[.[.[.[.`.6.< V 5XA.0 P.iX3X>XuXiXiX3X:X3X>Xb g.j.#.@.7.5XiX2X).6.: ; Y } ",
"hX} G V B.@.s p p #.p.#.= < 2.P.V = t 4.K.P.V X X 1 @.6.6.6.6.6.5.4 w A.0.2 m Z.A.P.P.P.P.P.P.P.y.< s 6.#.p 0 4.K.f.6.,.g @ R  .",
"} _ B B K 0 z &.*.*.;.@.3 2 0 t u z k 4 y n y 2 < - t v v p y s 2.z : 0 V t 3 3 y n n n y p n n y : y v y 3 2 3 c 1.V C H 8 R kX",
"} } V.a.6.<. XQ.M.M.n.d.s.>.v t 4.<XR.v.v.z.s.i.:.y *.>.:.*.n g.>XR.%.V  XR.c.v.z.d.s.>.c &.>.:.-.v :.l.s.i.l.c.R.>XK.*.7.b ! +.",
"O...F.6.s s U.5XeX5X_.h.z.l.v t &._.0XeX5XT.h.z.i.c *.-.c %.>.z.M.n.-.n T.0XeX5X_.h.z.l.v &.-.v n >.s.l.z.l.v.<XwX}.2.p #.8.` ..",
"fX..D.v < t n c.E.x.n p i.l.v 0 t *.R.E.u.a v l.>.p y &.:.>.l.z.l.l.*.r &.P.E.u.b p s.s.c y %.:.>.s.&.:.l.>.n 3.3.n y < 3 8..XhX",
"fX#XK N h - - p >.>.%.%.>.&.3 = = < v >.:.%.*.>.v < = t v *.l.l.-.n t = : c >.>.%.&.>.%.< = 3 v *.>.c p :.>.-.&.y : = 6 B u..XO.",
"+.fXS l B o X - p *.*.*.%.3 o X X X < v *.*.*.v : X X + - 3 v c 3 - + X X - c *.*.*.v < X X o - < c 3 < p *.*.%.3 o X 6 B 1.W dX",
" .fXS 1 e - 1 z 1.r.4.,.t = X 7 l t z 3.r.4.V 0 = X o + 9 C 3.N ; 9 N l t z 3.r.4.,.t = X X + , N Z 9 < b 4.r.4.m t < < a 3.] gX",
"| | I z t a g._.5XwX0XW.b z l S.].Y.,X0X0X5XK.i z w u t 3. XwX<Xx V.9X<XY.,X0X0X0XR.b z l u t V  X<Xr.i 0.5X0X0X3XY.;.r n  X@XvX",
"+XhX&XA.c >.z.n.M.M.M.9.n |.9X>X^.b.m.^.).Y.:.V  X<XU.*.b 2.M.v.n 5./.^.n.n.^.).Y.9.V  X8XT.;.b 2.R.<Xr.*.M.^././.m.d.*.c x.XXkX",
"| #X!.q.n l.z.z.l.l.:.p y U.`.Y.z.z.z.d.d.-.y b P.E.n.s.>.>.l.l.v *.d.d.z.z.d.d.;.y k x.E.M.d.>.>.l.M.*.t &.d.h.h.z.l.&.3 8..X..",
"+.jXH B H *.s.l.-.p 3 = - r 6.>.-.l.l.&.y < = - 5 >.l.z.z.l.l.s.v y v *.l.l.*.y < = - 5 :.l.l.z.z.s.c : = : 4 v >.l.:.N H u.@XfX",
"kXhXh w B 0 v &.4 - + X X = y y t &.n 1 - o X X : v *.*.*.*.&.c < - - 3 %.%.3 - + X X - c *.*.*.*.%.1 o X X = < v *.y w H 3.@X+.",
"hXhXG.,.r 0 3.r.b e 3 3 t 1.r.z t r.4.y 0 3 3 u 3.V.r.1.n c t e - o o 9 3.4.a e 3 3 t 3.V.r.1.n c y Z z 3 4 p y 3.V.z 1 p i ] fX",
"_ kX&XP.r z |.8XT.*.p :.z.<XwXZ.Z  X9XU.s v :.v.9XeXrX>Xz.:.a 6.&.3 : z  X9XT.&.c :.c.<XeXrX>Xz.>.b I.K.>.s.d.j. X*XV.t p u ] +.",
"+.kXH.8.1 : z ,.9.&.t v l.M.M.n 0 ,.Y.b.v t &.b.^.).3X`.j.:.c s.s.>.c 2 V U.n.&.t n z.^.).1X1Xk.>.y z z *.l.z.z.2.V t < t u Q hX",
"#XhXS.*.0 1 t *.i.c - y i.z.l.>.v p s.s.4 : v l.b.h.n.n.>.y y >.z.z.i.%.p s.l.y - p s.b.h.n.n.9.p 0 = < n l.z.l.>.v c v t w Q vX",
"hX#XD.*.p *.:.s.-.3 X 3 >.l.-.:.>.:.i.%.: o y l.s.&.v :.v - : c >.l.l.s.:.i.*.< o 3 i.l.*.v :.*.: + X o 3 *.l.l.l.>.>.:.3 , ! kX",
"fX+XC.y < c &.&.y - X = v &.t y &.&.%.t = X < %.v < - 3 2 X X - c &.&.&.&.&.y - X - v %.3 - 3 3 X X X X o < c &.*.v c 5 = # ! jX",
"fX..C.5 - - t s @.y 3 4 v v 1 < t y @.@.r 3 y v c : X o = - 3 t ,.b t t r s @.r 3 4 v c < X o = = 3 3 3 3 3 5 s @.1 o o : 0 W OX",
"} } D.-.r 0 y a.k.k.z.:.>.i.%.y y p g.k.n.l.:.>.>.c : < t y *.g._.K.n y p a.k.n.z.:.>.>.v < < t t %.>.l.l.l.n.k.j.@.: : p *.Q } ",
"_ } S.&.r t y 9.j.(.R.n y :.s.i.*.c s.k.`.x.p c >.>.p n *.t 3 :.n.>X}.:.c s.j.(.L.c p :.>.v v -.y 3 :.z.z.m.:Xk.d.&.t t 1 9 }  .",
"[ _ H y c *.p :.*.9.v.*.< y >.l.-.p :.&.s.z.v < v >.n *.l.*.t c >.M.M.>.p :.*.9.z.%.< p >.%.%.l.-.y :.z.z.b.c.*.:.v v &.t 0 } +.",
"fX' C.N.C.:.< 2 4 %.l.i.%.*.i.l.&.: 3 t -.l.>.%.:.>.v &.l.s.:.-.i.l.l.-.< 3 t *.l.>.%.-.i.%.%.l.l.:.s.l.l.l.>.y 3 < c Z.G.4..X .",
"hX} C.G.I k : - - t &.%.c %.&.&.p : : 3 y y y c %.&.y c &.&.%.c y v &.c : - 3 y y y c %.&.p p &.&.&.&.&.&.&.v < - - N XX.XN.] fX",
"hX+XH I L 7 t ,.n p y : + 1 c 2.0.2.n v < o X o < c 2.0.2.v 3 o X 3 *.0.2.n v 3 + X X : p 2.0.2.n y s &.n n c 4 c v C L S l ..vX",
"hX#XJ B J u &.Q.Y.6.v : = < *.E.3X:Xz.l.%.: X + 3 x.,X3X_.9.y o X b _.4X1Xn.l.&.< X + 2 9.`.4X`.s.&.6.9.:.:.z.n.M.z.*.9 , z ] kX",
"..+.G 9 u s p.j.*.y %.*.t < &.z.z.z.l.l.s.y - t 9.`.(.n.z.s.:.: = 0.`.J.j.s.l.l.c = t :.`.(.J.k.h.s.&.c 4 r j.1X4XE.-.t y 8.XX..",
"hX .C.v c -.n a < y >.>.p &.>.-.c y v >.l.n 0 c s.Y.5.p c %.:.y v g.a.s p v >.l.&.3 y s.Y.7.s s &.>.>.:.v t &.J.^.n.s.&.c 8.@XlX",
"+.hXG.M z -.M m f z t.-.z =.t.m 9 9 m t.t.m j =.t.9.*.M M b f 0 =.1.z 9 , b e.t.M j M t.9.2.M M m j f M -.M M n n 2.t.=.0 l ..hX",
"#XjXK B J x m 1.M x M M 9 l M M z z 1.e.m l z e.e.e.e.e.e.M 7 6 m j d z l =.e.M l l e.e.e.e.e.e.M 7 O d x m 1.m m M e.M 9 7 } kX",
".. .S G ] S 7 f j f f j # > f j j j j j 9 7 9 b m k j z m j > O f 9 7 j j j j f 7 7 z m k j z m k > O # 7 f z j j j z N h q } kX",
"....G G #XL @ O ; 9 l l 7 ; # O O O O ; f d d l 0 # O # 9 l d 7 7 , ; O O O ; d d d l 0 ; O # 9 l 9 > > d l f , # O ; G W h } kX",
"OX#XC.K I w # , j Z D.F.Z.M 0 , ; # 2 k w.D.F.Z.M 2 # O d S.F.D.N 9 2 > # , j w.D.F.A.M 9 # O 7 V.D.1.w.F.{.D.M 0 # ; B Q {.OXkX",
"jXjXC.V l 9 2 k k 9 l 0.q.*.j 7 0 c c j 9 N 0.8.M 0 j , > x e.0.1.v j 0 z c j 9 z 0.0.=.0 t 2 # z w.-.2.0.q.0.*.b 0 , w N 3.] kX",
"vXnXC.k 9 9 z M b 0 , y =.=.j , t =.=.c 9 9 b *.b 0 c j 9 c =.*.*.=.z 0 M =.b 9 2 z *.M 0 k j 2 c =.=.=.*.*.*.=.k 9 , , 0 M .X#X",
"vXbXH 0 , 9 j M =.b k k j j 9 , 9 k =.=.b k k j j 9 c b b =.=.=.c b z 9 k M =.b k k j j 9 k b c =.=.z j c =.=.M 0 , ; # , M OXjX",
"nXlXS + + + ; t v c k t , ; + + + : k v c k 0 , + ; 0 c =.v k 3 : 2 2 # ; t v c k t , ; + 3 c =.n k : ; 0 k c c 3 ; O . O j ] lX",
"lX..g O @     + 3 3 : = + .       . = 4 2 : = X     X 3 k 4 : X . X X   . + 4 3 : = o .   X 2 k y : . X + = : 4 - .   . @ 6 | nX",
"fXfXA A F & $ $ 8 q q 8 @ @ @ @ @ @ % q q 8 6 $ $ $ $ 6 q 9 8 8 % $ @ @ @ % 7 9 7 6 $ @ $ @ 6 9 q 8 @ $ $ % q q % $ $ * A h | vX",
"fXfX} ! } R E Y W W E R E F T P T ( E E R L E P T R T F P P P ' Y P T F F T P P P R R R T F D F P F P W Y L R P P Y E [ X.! hXkX",
"fX#XhX..+.hXhXhXvXkX..lXvXhXfXX.+.fXfXfXfXfXfX} [  . .) _ [ O.| ..!  .fX+. .+._ } hX| X.O.{ ( ~ U / [ hXjX .X.} } hX..+.fXhXkXhX",
"| ..hXfX+.kXnXlXjXkXlXhX..+.fX} +.hX+X+.fXkX .+.+.+.[ / R  .+.[ } } } X.| } O.( +.+.}  .O.+._ F F T _ +.hX+.hX}  ...kX+.+XkX..o.",
"+.hX#X..+.lXjXhXnXvXhXfX .+. .X.hX . .+...kX+.}  .X.} ^ T +._ _ X.[ ( T ' ..[ { [ [ R } } ' T / ~ ) +.fXfX+.kX#XhXhXvXlX#XhXhX+.",
" .|  .jX@X+XjXjXhX+X' } } +. . .+.|  . .| } _ }  .{ ) / / ( ( } } [ ) T _ / ( [ ( ( ) ' ' [ U T /  ...hX} } hX#X} ..gXcXkX+X|  .",
"....hXbXhX..+XlXvX.. .+.#XkX+.+.O.} } } X.} /  . .+./ X.R ( { X.} } } ) } _ ) _ } _ [ } ' / / / X. .lX..+.} +.} | } O.cXhX+X| +.",
"kX..#XhX .+.hXhXkX#X+.hX..+. .kX+._ +.+.} _ / /  . . .} | | +.X.X.}  .+.+.+.+.} } } } _ _ } _ / O.hXvXfXfX} o.} } X./ _  . .' ..",
"....kXkXfX+.hX+.+.O. .+. .fX .#XhX( X.dXO.[ _ { X.X.} } +. .} ../ } fXX._ fXxX'  .} E } | +.O._ +.vXjX+.+. .} ....} [ } hXjXcXcX"
};
