/* XPM */
static char *_b07439a30384eac89c79ebd90ef87c7LHi7LgxvkPuzwDLx[] = {
/* columns rows colors chars-per-pixel */
"64 64 234 2 ",
"   c #240C09",
".  c #2A0F0C",
"X  c #27100C",
"o  c #2E110D",
"O  c #33120D",
"+  c #3A140F",
"@  c #2F1410",
"#  c #351511",
"$  c #3C1511",
"%  c #381A15",
"&  c #3C1915",
"*  c #3C2D1D",
"=  c #3F301E",
"-  c #431611",
";  c #481713",
":  c #451A14",
">  c #4C1A14",
",  c #431D19",
"<  c #4C1E19",
"1  c #541C16",
"2  c #5B1E16",
"3  c #541D19",
"4  c #5B1E19",
"5  c #631F16",
"6  c #621F1B",
"7  c #4C211C",
"8  c #44281C",
"9  c #54221C",
"0  c #5A241A",
"q  c #5C221C",
"w  c #43321F",
"e  c #4A321F",
"r  c #64221B",
"t  c #68261B",
"y  c #6B231D",
"u  c #72251E",
"i  c #7A261B",
"p  c #75281E",
"a  c #7B291E",
"s  c #69311F",
"d  c #542520",
"f  c #5C2621",
"g  c #5D2922",
"h  c #443421",
"j  c #4C3321",
"k  c #4D3C24",
"l  c #4C3E29",
"z  c #553623",
"x  c #543B25",
"c  c #5A3B26",
"v  c #543F28",
"b  c #632521",
"n  c #6B2522",
"m  c #652925",
"M  c #6B2A24",
"N  c #6F2A28",
"B  c #742621",
"V  c #7B2622",
"C  c #752A24",
"Z  c #7B2923",
"A  c #732B29",
"S  c #7C2B2A",
"D  c #683727",
"F  c #7C3226",
"G  c #78372B",
"H  c #7C342B",
"J  c #574329",
"K  c #5B442B",
"L  c #594D30",
"P  c #5E5D3E",
"I  c #65432C",
"U  c #6A452C",
"Y  c #64492D",
"T  c #6C4A2E",
"R  c #75482C",
"E  c #7C4B2E",
"W  c #6D4D31",
"Q  c #764E31",
"!  c #695A37",
"~  c #775734",
"^  c #725936",
"/  c #5F603D",
"(  c #67643B",
")  c #64623E",
"_  c #6A653D",
"`  c #6D6A3E",
"'  c #74633B",
"]  c #7B633A",
"[  c #746B3E",
"{  c #605D40",
"}  c #5F6140",
"|  c #656542",
" . c #666943",
".. c #6C6C43",
"X. c #6A6A44",
"o. c #726D42",
"O. c #796E44",
"+. c #6E7145",
"@. c #6C7349",
"#. c #747445",
"$. c #7A7544",
"%. c #767946",
"&. c #7C7A46",
"*. c #737649",
"=. c #797648",
"-. c #757A4A",
";. c #7A7D4A",
":. c #7B7D4A",
">. c #812A1E",
",. c #8B2B1D",
"<. c #822725",
"1. c #842A25",
"2. c #8B2B26",
"3. c #832B2A",
"4. c #8D2C29",
"5. c #952E26",
"6. c #942D2A",
"7. c #9B2E2D",
"8. c #833226",
"9. c #8C3125",
"0. c #83332A",
"q. c #8D322B",
"w. c #853A2D",
"e. c #8B392C",
"r. c #943223",
"t. c #9B3225",
"y. c #93332C",
"u. c #9C342D",
"i. c #953B2E",
"p. c #9C3B2D",
"a. c #843030",
"s. c #8B3232",
"d. c #843B31",
"f. c #8D3E31",
"g. c #943231",
"h. c #9A3431",
"j. c #943D31",
"k. c #9B3D31",
"l. c #A12F2E",
"z. c #A33526",
"x. c #AA3725",
"c. c #A3312E",
"v. c #AB342D",
"b. c #A43B2B",
"n. c #AB3C2C",
"m. c #B43B2C",
"M. c #B7382E",
"N. c #A53130",
"B. c #AB3232",
"V. c #A93B34",
"C. c #B13633",
"Z. c #B33A32",
"A. c #BA3D34",
"S. c #B53E39",
"D. c #C13E2D",
"F. c #874C2E",
"G. c #8D4234",
"H. c #8A4739",
"J. c #954234",
"K. c #9D4234",
"L. c #934B3C",
"P. c #98483A",
"I. c #875736",
"U. c #9C5536",
"Y. c #B6412E",
"T. c #A34334",
"R. c #AC4434",
"E. c #A7493A",
"W. c #AC4A3A",
"Q. c #B34434",
"!. c #BB4333",
"~. c #BA4936",
"^. c #B5413B",
"/. c #BB433D",
"(. c #B64A3C",
"). c #BC4C3B",
"_. c #A8533E",
"`. c #90653C",
"'. c #C3412F",
"]. c #C34433",
"[. c #C64838",
"{. c #C34C3C",
"}. c #CB4D3B",
"|. c #D04F3C",
" X c #C3513F",
".X c #CF503D",
"XX c #BE4841",
"oX c #AA5240",
"OX c #B95543",
"+X c #816F41",
"@X c #847845",
"#X c #827C46",
"$X c #827D49",
"%X c #AE7551",
"&X c #C44C42",
"*X c #C45343",
"=X c #CB5543",
"-X c #CA5947",
";X c #CD5C4C",
":X c #D35343",
">X c #D35A47",
",X c #D95A45",
"<X c #D45C49",
"1X c #DA5D4A",
"2X c #C5634E",
"3X c #CD624D",
"4X c #D4624D",
"5X c #DB624C",
"6X c #CF6552",
"7X c #D46653",
"8X c #D56A54",
"9X c #DC6A53",
"0X c #DC6C56",
"qX c #DD6D58",
"wX c #E2624E",
"eX c #E66651",
"rX c #E86751",
"tX c #E56C55",
"yX c #E86D56",
"uX c #E4765C",
"iX c #E77960",
"pX c #77814F",
"aX c #7D824C",
"sX c #7D8351",
"dX c #83834B",
"fX c #8A844C",
"gX c #84894F",
"hX c #8A8A4E",
"jX c #828451",
"kX c #858B52",
"lX c #8A8C51",
"zX c #948C52",
"xX c #8A9154",
"cX c #939655",
/* pixels */
"$X;.;.#.*.-.;.dX-...-.#.+.o.aXdXdX;.*.*...*.} | | | jX;.$.=.#.#.;.#.;.;.+.*.#.-.*.+.....aX;.$X&.$.fXaXdXkX*.-.;.xX*.;.$.#.-.;.;.",
"$.;. .#.#.X.#.*.#.#.*.aX#.%.xX$XdXgXaX......P | | ..-.-.-.-.*.aX&.%.dX&.#.#.+._ +.+.| | #.;.#X#XhXdX&.$XaX..-.&.-...;.;.%.*.aXaX",
"aX*...+...@._ $.#.#.-.*.;.-.gXlXaX&.#.X...| ) | -.aX-.#.*.aX+.%.dX;.aX$X&.#.....#.X. .| X.;.dX#XdXfXdX;.aX#.-.#.#.-.;.gXo...#.-.",
"%.o.X. . .@.#.;.;.;.sX#.*.*.$.dXdXdX#.-.-.*.*...-.-.;.;.*.*.-.;.;.*.*.-.aX;.#.*.| ) ) ..-.aXgXhXdXfXdX%.dX#.#.#.;.*.+.aXdXaX#.o.",
";.-.*.#.+.*.#.#.#.+...#.#.%.&.#X@X&.%.aX-.*.pX@.@.-.dXdX;.| #.-.#...X.-.-.&.@X#.+... .| | ;.gXhXfXfXdXdXdX$.$.;.*.#.#.-.#.$.#.*.",
"&.#.-.#.$.&.&.-.*._ ` $.o.%.#.$.$.$.#.*.;.;.+.-.X.*.;.;.;...#.;.;.*...%...&.dX;.-.-.+.) | &.$X@X@X&.;.;.dXdX$.$.#.&.&.;.*.#.%.dX",
"@X#.o.Q c k K Y I D I Y J Y U T T Q T U K k J  .| l v T T W W T v ! ' T T Q T T W K k x I W U U T W O.^ I.U.F.E E E E E E ] @X@X",
"dX+XE 0 + $ 1 p e.i.j.F 2 > > 2 u >.u t > + : J h # ; t 8.i.i.e.r z x 9 t a a t q + O ; t e.i.i.F 0 K m p.[.n.t.,.i y 5 5 G `.&.",
"#XI.a ; + 1 u b.>X5X>XR.u - > p t.x.t.a 2 ; 2 > $ ; t 9. X5X1X{.1.> , r 9.x.z.1.r - + 3 i.>XwX5XW.0 & 2 i.>X1X[.n.<.5 ; - y F.$.",
"$.U.b.t r a b.>XeXeX{.9.t ; f.=X(.t.).R.u t i t q y r.*XwXrX>Xp.u > M *X Xt.R.(.1.t r j.<XeXwXwX1XE.3 2 Z Q.5XwX1XQ.>.t q r.U.o.",
"$.%XOXF T. X>XeXeXeX<XR.a r W.*X8.t OX>XR.9.R.8.e.).=XwXrXeX5X{.9.r e.-Xj.r k.1X).9.T.>XeXwX&X[.:X*XM y p.=XwXeXeX1X X(.C E.%Xo.",
"-.%X2X8.i.R. XwXeXeXeX<XR.1.(.=XT.j.K.=X>X{.>Xi.9.T.(.1XeXeXeXwX).9.p.>XW.j.j.).1X{.>XeXeXwX:X&X>X=X9.p.=XeXeXeX,X}.Q.k.1.oX%Xo.",
"fX%X8XE.J.K.OXtXyXyXyXyX5Xn.=XyXyX4Xp.).tXyXeXQ.y.J.W.5XyXyXyXyXtX~.~.tXyXtX(.T.9XyXyXyXeX1XeXyXyX4Xn.-XyXyXyXyX,X).T.J.K.2X%X$X",
"$X%X8X7X8X8X8X0X0X0X0XqX4X!.-X0XqX7X!.=XuXuX0X~.*X8X8X0X0X0X0X0X0X{.{.0XqX0X X~.9XuXiXuX5X}.4XqXqX4X!.-X0X0X0X0X0X7X8X0X7X8X%X$X",
"#.`.!.T.4X<XXX/././././.V.1.u.^.^.V.2.b.>X0X/.9._.7X&X/././././.^.y.y.S.^.S.y.t.}.0XuX5X].Z.S./.^.V.1.b././././././.*X8XR.Y._.$X",
"$XI.,.a ~.>X<X;X=X!.C.B.7.u 2.6.V Z 2.c.A./.N.V i.=X<X;X=X[.M.B.B.1.V 7.1.V 1.6.Z.{.&X/.C.B.B.B.7.V y 6.B.B.B.B.&X;X;X(.1.>.F.o.",
"dXT q t 2.(.;X-XW.9.5.B.7.u V 1.1.2.c.B.B.B.N.V a n.-X;X(.i.2.c.B.1.u 1.1.1.6.B.B.B.B.7.6.N.B.B.4.t t Z 7.B.N.6.K.oXE.4.y 2 U $.",
"#.L 8 1 2 Z c.c.Z 6 <.N.4.r 2 u 6.7.N.B.N.7.6.y 2 y 7.N.4.r y 7.7.u 2 r 2.6.c.B.B.7.6.<.u 6.7.7.V 2 2 q Z 7.c.1.B u r 2 2 7 L dX",
"#.o.K & + > V 7.6.6.7.4.r $ + ; r y 6.7.1.r 4 ; + - y 6.7.6.6.6.u ; + $ 4 t 1.7.6.y r q q t t r 1 + + > r V 7.7.6.V 1 + + x [ &.",
";.] s $ + + 2 B V V B r - O O + $ ; t r ; $ $ $ + + ; y V V B y ; + O O + - q t 3 - + $ ; q ; $ + O O + > t B V C q - + + 0 Q $.",
"aXQ t 2 p e.P.oXoXE.0.q ; + - ; q G._.P.D 7 G.P.e.9.J._.oXW.k.t > $ $ ; 1 G _._.G., O g P.oXP.M > ; + ; 2 Z T._.oXE.i.a 2 2 R $X",
"aX^ t <.v.[.=X;X;X=Xi.C f.H 8.u C _.;X;XJ.M OX5X}.].=X<X5X<X^.C w.G.H a y J.OX;XOXr 1 j.;X;XOXw.y 1.H G.F 8.&X<X4X,X|.M.2.y I *.",
"-.^ B 7.B.B.C.C.B.N.1.e.3X4X{.t.B Z N.C.4.p M.'.Z.B.C.A.'.M.6.C OX7X=Xn.Z C y.B.N.B 2.B.C.B.1.B 2.!.;X6XK.C u.A.'.D.A.C.c.V I %.",
"%.^ C 7.B.B.B.c.7.V r a Y.].A.v.l.l.B.B.4.u 7.v.B.B.B.v.c.2.t r g.S.S.B.c.7.N.B.7.u 2.N.B.B.c.7.c.C.S.V.1.r u 6.c.v.B.B.c.n J aX",
"$.[ ~ S 7.B.6.B 4 ; $ ; t c.B.B.B.B.B.B.4.y u B 6.B.c.Z 6 > $ - 1 <.B.B.B.B.B.B.7.u y 4.B.B.B.B.B.B.l.u ; $ - 1 y 4.B.c.1.D _ hX",
"@X`.R 9 B 1.y ; ; + O + 1 V 1.1.1.1.1.V 4 ; ; ; r 1.V 2 ; $ O O ; y 1.1.1.1.1.V y > ; 4 B 1.1.1.1.1.<.4 + O + - ; r 1.V 4 D ] dX",
"$.I.u 1 H f.F t q 4 3 n w.f.f.0.V B t r 2 $ + $ M f.w.t q 4 3 q H f.f.e.Z V y r 2 ; > 4 t B V V 8.f.f.f.C 4 4 y t C f.w.9 r E $.",
"&.I.u t _.2X).z.u 1.7.^.3X7X8X*XB.7.u 2.r.t > 1 G.2X3XY.>.B 6.N.;X8X8X4XZ.c.1.a t.Z 2.v.v.c.N.v.).8X7X2XW.7.l.c.v.(.2XOXC r E $X",
"dX~ q ; M 0.y.u.y y 4.B.^./.>X:XM.c.B 2.v.7.4.4 q i.].Z.Z t Z B.].[.:X1X].v.1.Z c.c.N.B.C.B.B.M.}.1X/.q.C 1.N.B.B.u.0.C 1 2 T #.",
"$X^ q 1 4 V 7.6.2 2 1.B.B.B.S.A.v.Z y 2.B.B.B.4.y Z v.c.y > u c.C.M.A./.Z.2.y V c.B.B.B.B.B.B.C.A./.N.6 1 B c.B.B.7.1.y u y T %.",
"..^ t Z 1.7.7.V - ; V B.N.6.2.7.6.2 > y 6.B.B.B.6.6.c.2.1 + 6 l.B.7.2.6.7.y ; 4 2.N.B.7.1.B B 6.B.N.1.> + 4 2.N.B.B.c.4.7.1.T $.",
"%.^ r <.6.6.1.4 + O 6 6.4.r 2 y B $ O ; y 6.7.7.6.6.4.y - o ; 2.6.B 2 r V > O + 4 2.6.V > + + 6 2.<.4 + O + 4 <.6.6.6.4.2.y I $X",
"#X! ; ; r u u t ; - 4 B y ; + $ - + $ ; q C y y y y u y 1 - > y u 2 + + - $ + - 1 B S t ; - + $ - $ $ $ - - ; 1 t u t > - - K gX",
"dX~ t 2 q 2.x.x.6.4.6.6.4.r - - 1 4 <.t.R.R.B r r a z.x.5.2.4.6.6.B ; + > 2 u 5.b.).*XQ.t.2.r 2 ; + 1 V 4.4.4.6.z.x.r.2 + 1 R gX",
";.~ y r r 5.M.'.{.u.<.4.c.6.V y y 2.C.[.{.i.y V 2.2.r.v.6.B V l.B.W.J.B y Z c.].}.R.K.V.Z.c.u B B > 1 4.B.B.C.{.].D.c.t 1 2 R #X",
";.^ t B y 2.c.n.).y.r r 4.N.B.2.B c.z.!.Q.V 4 V 7.6.B 7.6.t 4 2.N.XX&Xu.B 6.c.n./.q.r y 6.7.u 2.7.B 2 2.B.B.C.{.Z.c.6.y B y U $.",
"#.^ G 6.y B V V c.B.V 4 V c.B.1.y <.u 4.B.6.6 y 6.6.B 7.B.4.u V 7.B.C.7.y V V Z B.N.B 4 1.7.B 2.B.7.V 7.B.B.B.B.1.V <.y 6.0.W o.",
"..o.I.q.1 - > y 6.N.7.4.7.c.c.B - ; 4 1.7.7.4.6.7.4.u 6.N.7.6.6.7.l.N.4.> ; 2 u 7.7.6.6.7.7.u 1.c.c.7.c.N.N.N.l.B 2 ; > q.I.;.*.",
"+...! 0 1 1 > > u B r 6 B V V y 2 2 q 4 3 3 4 y V u t B V V u 4 3 y V B 4 1 4 4 3 3 3 r B B t u V V V V V V V B 2 ; 1 0 Q O.aX-.",
"aX..! 9 4 0.i.>.V 4 + $ r 1.i.T.k.4.1.r - O O - r q.T.T.y.B 2 + O 6 y.T.T.y.1.B ; + O + 2 1.k.T.i.1.t >.2.1.1.1.V V 1.1.R Y ! %.",
"$X` T t a Q.[.z.2.y > ; 4 7.{.:X&XC.B.4.4 + $ 1 4.{.:X:XS.6.r + O S {.,X:XA.B.7.u $ + ; B ^.:X,X}.v.1.r.t.4.2.v.A./.S.N.u > J %.",
"$X^ t u t.M.r.t B 6.V 2 4 7.B.N.N.c.B.B.V ; 4 4./..XM.v.c.c.2.; ; k.}.Y.M.v.N.B.6.1 > V Z.=X].M.M.v.c.1.u t 2 t.}.,X:XB.V r T gX",
"dX^ B 4.<.p r 1 4.N.1.u 6.c.1.y y V 7.B.2.q r 6.A.n.Z u B 2.4.y 1.n.b.a u u 4.B.7.r q 1.C.Y.9.p p <.7.7.7.1.t p n.].!.B.7.V U dX",
"&.^ m 4.3.S b q 4.g.C M g.g.C 7 9 C g.g.S b A q.h.y.S S S n q b 3.q.M 9 < n 4.g.4.b M 3.h.u.3.S S A b f S 4.S S S Z 1.g.g.C U $.",
"dX' I A A S S N A 0.m d A a.S m m a.s.S m b 0.s.s.s.s.s.s.m , 7 A m d m m S s.a.N f A s.s.s.s.s.s.S 7 % 9 A A a.S N A a.s.N W gX",
";.dX[ Y d f A m f m 9 % 7 m A N N A N f 7 9 A S A A A S S m , & m d 7 M N A A m 9 7 m S A A A A S N 7 % & 7 f A A N N A A D ! &.",
"$XhX@X' 8 # & < f g 9 & & & & % % & , 9 9 7 f f < % & < f 9 , , 7 7 , & % % & < 9 7 9 f 9 & % , 9 f 7 & & 7 f g 7 , & & 9 W $XgX",
"&.&.] D & & 3 A H.L.L.d.n < : % # , b d.L.L.J.H q & @ # A H.L.H.g < < , # & q H L.L.H.e.n , # # 9 G.H.H H G.L.L.H q , # 9 ^ dXdX",
"&.' U 0 : 9 n m D G.T.k.S q < 3 b n n m G K.K.q.n 9 3 % f d.P.K.S n r 9 q b n m G J.T.j.A 9 3 , < H j.s.s.K.T.T.q.S b , 9 D ' dX",
"$.^ 0 9 q C C q , t 1.q.S q < b 3.S n < 9 Z 9.3.n r C < 3 C 3.4.3.3.n q S 3.C 9 > y 9.4.A q C q < n S 3.3.4.q.q.4.S b 9 < 9 U dX",
"dX^ 9 9 n S 3.C q q n C C 9 < r S 3.3.n q r C C b b C b n 3.3.3.S S n q C 3.3.C q q n C n q C n b S 3.S C S 3.3.3.n 9 < < , K dX",
"hX' 7 < 3 n 3.3.C C b 9 3 < < < q C 3.S C n q 3 < q C S 3.3.S C q n n < 3 C 3.S C C r 9 < 3 n S S 3.C r 9 b C S 3.n < , # @ v @X",
"lX! # O O : r B 6 4 3 - O O O O $ 4 B n 4 3 ; # o $ 4 C Z n 3 - # : ; O O > n B 4 3 > $ O # < n Z C 4 $ $ > 3 4 n r , O . X k #X",
"cX[ k X   . ; 4 ; ; $ o           + 3 1 ; - + .   . $ 4 6 3 - + . . o     o > 3 ; ; $ .     O > 6 4 ; o . + + ; 3 > O     * ! gX",
"hX&.` k w w j c c z e w * * = h = w z c c x h w * w w j z c c x h * w * = h j z c c j * * w h j z c z w * * h c z j h w h ( dXxX",
"aXdXdX&.$.&.&.aX%.;.#.;.( ! ` ` ..+.$.$.#...$.#.o.#.$.....#.#.#.#.o.#._ ..;.*.#.#.[ #.X...X.) ) .._ ..#.` ) *.&.o.$X&.#.#.kXlXlX",
"aXaXdX&.;.&.dX&.#X:.;.%.&...#.#.%.aXdXaX;...aX#.;.aX;...+...+.;.%.#.#._ ..-.#.+.#.$.;.aX;.X.! | .. .+.$X$.#.;.*.[ ;.aXaXaXdXgXdX",
"aX$XdX&.;.aXdXdXlXgX&.hXhXdXaX*.-.;.aXaX;.aXaX#...%.#.X...+.*.$.$.` %.aX;.%.-...#.dX$.*.-.+. .P P ) ..dXgX%.#.o.#.dX&.;.aXdXgXdX",
"$.&.dX;.;.gXcXhXfXgXhXdX&.;.aX#.;.dX#X;.aXdX%.;.;.;.+.| _ -.;.+.#.#.#.*.$.#.-. .;.;.#.-.-.;...P P ) ..;.dX;.dX#.-.&.gX;.#XgX&.*.",
";.gX$X&.;.hXfXdXcXlXdXaX%.;.-.*.dX%.%.;.&.dX;.#.;.*.#.} ( ;.....*.+. .) o.=.+.@.+.+._ #.#.o.) | { X.aXaXaX;.gX$XdXdXlXhX#XdXdX;.",
";.$.%.fX@X#XfXfXdX@Xo.#.#.;.-.%.;.$.%.-.$.#...#.-.@.X.) |  . .#.#.+.X.) ..|  .+. . .X.o.o.+./ ) | %.&.dX#.#.dX$X#.&.sXkXgX#X$.%.",
"&.&.dXzXdX$.@XhXlX&.%.;.$XdX;.;.-.#.#.#.*.#.| %.-.;.| *._  .@.*.#.#.#.` #...X...#...+.#.o.| | | *.%.hX&.;.#.;.#.$.#.-.kXdX#X$.;.",
"gX&.$XdX-.;.dXdXgX$X;.dX&.;.-.dX;...;.;.#...| | -.%.%.#.$.$.;.*.*.#.%.;.;.;.;.#.#.#.#.....#...| -.dXlXaXaX#.*.#.#.*.| ..%.%.o.&.",
"&.$.gXdXaX;.dX;.;.-.%.;.%.aX-.$XdX .*.pX-.+...@.*.*.#.#.;.%.#.$.| #.aX*...aXjXo.-.#.` #.$.;.-...;.lXfX;.;.%.#.&.&.#.+.#.dXfXkXkX"
};
