/* XPM */
static char *_41aefe2567c4959fba2af9064b30ad3xcRqDBUHhpDqzA0q[] = {
/* columns rows colors chars-per-pixel */
"64 64 226 2 ",
"   c #3C140F",
".  c #3E1811",
"X  c #441711",
"o  c #4B1711",
"O  c #431F15",
"+  c #4C1A13",
"@  c #541C14",
"#  c #5E1E16",
"$  c #651F16",
"%  c #462116",
"&  c #482619",
"*  c #5D2219",
"=  c #56281B",
"-  c #4A321F",
";  c #692117",
":  c #63231A",
">  c #6C241A",
",  c #632B1D",
"<  c #6B2C1E",
"1  c #74261B",
"2  c #7C261A",
"3  c #74291E",
"4  c #7D2A1E",
"5  c #5C2C20",
"6  c #4B3623",
"7  c #553522",
"8  c #553D26",
"9  c #652E22",
"0  c #6C2D21",
"q  c #742E21",
"w  c #7B2D22",
"e  c #6C3023",
"r  c #673A26",
"t  c #753224",
"y  c #7B3325",
"u  c #783827",
"i  c #7D3C29",
"p  c #574328",
"a  c #5C442A",
"s  c #5E5736",
"d  c #5E5D3E",
"f  c #63452A",
"g  c #6D432B",
"h  c #6E4A2E",
"j  c #75462C",
"k  c #6E4F33",
"l  c #784D31",
"z  c #655B35",
"x  c #6A5C36",
"c  c #675A39",
"v  c #735A35",
"b  c #5F603D",
"n  c #64623E",
"m  c #6B643D",
"M  c #6B6A3F",
"N  c #74643B",
"B  c #7B6339",
"V  c #716C3E",
"C  c #7A6A3E",
"Z  c #77703F",
"A  c #605D40",
"S  c #5F6140",
"D  c #656541",
"F  c #666943",
"G  c #696943",
"H  c #6C6C43",
"J  c #766541",
"K  c #726E43",
"L  c #7C6D43",
"P  c #6D7145",
"I  c #6D7449",
"U  c #747445",
"Y  c #7B7544",
"T  c #767947",
"R  c #7C7A46",
"E  c #727649",
"W  c #7A7449",
"Q  c #757B4A",
"!  c #7B7D4A",
"~  c #83271A",
"^  c #832B1E",
"/  c #8B2B1D",
"(  c #922D1F",
")  c #992F1F",
"_  c #96301F",
"`  c #822E22",
"'  c #8B2F22",
"]  c #922F20",
"[  c #992F20",
"{  c #843225",
"}  c #8B3224",
"|  c #833529",
" . c #85392A",
".. c #8D3A2C",
"X. c #953224",
"o. c #9B3323",
"O. c #943B27",
"+. c #943629",
"@. c #953B2D",
"#. c #9C3B2C",
"$. c #963C30",
"%. c #9B3E31",
"&. c #A43424",
"*. c #A73726",
"=. c #AE3926",
"-. c #A43C2C",
";. c #AC3D2B",
":. c #B23926",
">. c #B33D2A",
",. c #BA3D29",
"<. c #A83F30",
"1. c #93442B",
"2. c #9C4133",
"3. c #974C34",
"4. c #8A5D39",
"5. c #965A3A",
"6. c #AC422C",
"7. c #B4412E",
"8. c #BA422E",
"9. c #A34334",
"0. c #AD4333",
"q. c #A64738",
"w. c #AD4939",
"e. c #B34433",
"r. c #BC4532",
"t. c #B54935",
"y. c #BC4C35",
"u. c #B44B3A",
"i. c #BC4C3B",
"p. c #A55637",
"a. c #BC513E",
"s. c #B4593B",
"d. c #88683E",
"f. c #95623C",
"g. c #A4603B",
"h. c #C4432E",
"j. c #C9442E",
"k. c #C34631",
"l. c #CA4631",
"z. c #C44A35",
"x. c #CC4A35",
"c. c #C34E3B",
"v. c #CB4E39",
"b. c #D04C37",
"n. c #D34F39",
"m. c #C4523E",
"M. c #CB513D",
"N. c #C55A3E",
"B. c #D4523D",
"V. c #D8543F",
"C. c #A95D42",
"Z. c #B95945",
"A. c #896A44",
"S. c #986C4A",
"D. c #817544",
"F. c #887E47",
"G. c #83764A",
"H. c #8F754C",
"J. c #827E49",
"K. c #8B7C4B",
"L. c #98764C",
"P. c #9F7150",
"I. c #9D7A51",
"U. c #A26846",
"Y. c #BD6147",
"T. c #A1744D",
"R. c #A8764F",
"E. c #A37451",
"W. c #A77A53",
"Q. c #AB7C52",
"!. c #B37452",
"~. c #C45342",
"^. c #CA5542",
"/. c #CD5946",
"(. c #D35541",
"). c #D95641",
"_. c #D35944",
"`. c #DC5B45",
"'. c #D45C49",
"]. c #DD5E49",
"[. c #E05D47",
"{. c #E05E49",
"}. c #C7654D",
"|. c #D3654C",
" X c #DD624D",
".X c #CA6F54",
"XX c #D96A51",
"oX c #DA6D53",
"OX c #C57556",
"+X c #CA7355",
"@X c #C77858",
"#X c #CB7B5A",
"$X c #DB7156",
"%X c #DD755A",
"&X c #E3624D",
"*X c #E76651",
"=X c #E86651",
"-X c #E66A54",
";X c #E86B55",
":X c #E86F58",
">X c #E4735A",
",X c #77804E",
"<X c #7D824C",
"1X c #758051",
"2X c #7D8551",
"3X c #7E8952",
"4X c #858047",
"5X c #83834C",
"6X c #89844C",
"7X c #84894E",
"8X c #8A894E",
"9X c #93854E",
"0X c #828651",
"qX c #8A8551",
"wX c #848B52",
"eX c #8A8D52",
"rX c #828E58",
"tX c #958852",
"yX c #859055",
"uX c #8B9154",
"iX c #8A9459",
"pX c #929555",
"aX c #A48454",
"sX c #B28255",
"dX c #B28258",
"fX c #CD805D",
/* pixels */
"J.! m = +.3 = 9 t 6.8.O.q i D.5X5X! U T U Q S D D D 0X! Y R U U ! U ! ! P U U Q U P H H <XR J.R Y 6X<XY l j i 3..X}.s.1.u k Y ! ",
"Y R s , e.w.2.q.u.M.B.i.w.C.qX4X5X7X<XH H H d D D H Q Q Q Q U <XR T 5XR U U P M P P D D U ! J.J.8X4XK.U...~ / e.&X&XB.>.^ u L.5X",
"<XE c u ~._._.'.~._.&X{. X+XtXeX<XR U G H F n D E <XQ P E <XP T 5X! <XJ.! U H H U G F G G ! 5XJ.5X5XaX.Xk.*.;.B.&X*X&XB.o...OXK.",
"T K c t u.-.e.~.+.k.`.V._.+XK.5X5X5XU Q Q E U H Q Q ! ! E E Q R ! U E Q <X! U U D n n H Q <X7X8X4X6XaX$Xv.B.].&X*X*X*X].0.@..XA.",
"! Q m 0 ' > @.(.r.).&XB.B.#XK.J.D.R T <XQ T ,XI I Q <X7X! D K Q U H G Q Q R D.U P H F D D ! 7X8X6X6XaX%X].&X=X*X*X*X&Xc.` y .XG.",
"R U m 0 ( ( e.].`.&X).8.i.#XG.T R R Q Q <X! I E H Q <X5X5XU W ! <XW H R U J.5X5X! ! U n F ! J.J.J.R I.%X;X=X=X].c.i.t.{ o 9 +XK.",
"D.U m t =.l.).=X&X~.>.*.u.#XK.R J.7XT U E Q T Q 2XQ H 7X! <X7X<XG Q Q U 5X5XR ! rX5XU G E Q U T T U I.%X;X*X'.w./ ( ( > X e .XL.",
"5XJ.N e *.v._.'.~.{ 2 ) c.+XK.5XU <XE ! 2XrXU Q 1XQ U <X! <X! E m H E Y 5X0XY ! 7X7XU U Q ! <XU K R I.%X-X&X2.3 ( :.,.=.^  ..XH.",
"F.D.x = 2 ` y y w : + > *.s.L I U Q R ! 0XwXI P E H F P R Q Q <XU U U F.J.<X5X8X5X5XH H n T <XU U T L.$X).].~.w.c.).).l.o...+XG.",
"Y J.m % # : * @ o X   7 l 4.K D H Q U K <X! E E U G n H U E 2XQ ! <X! 8XR J.wXY 5X7XU U U T U R T R I.oXx.n.].*X*X&X).8./ ...XG.",
"U J.x % 1 ^ { | 0 + X 7 c ! U K D U ! T 5XQ E E P n G H U U ! T U <X! F.! 0X5X6X<X2XU ! 5XU R Q U R H.+Xl.l.`. X_.'.8.( > i !.W ",
"Q U z = o.h.M.].~.+.> < j L ! <XU Y U U T Q G T P T U P H H T D.Y T U ! P R 6X<XU H ! 2X! U J.R ! eX6XL.y.V.].i.#.7.} > @ - J K ",
"6X! x < =.V.&X=X&X^.X.( ;.p.D.R U R E D n H D U H T U U U H ! 4XJ.T T H K <X<XU U U ! ! K m H R J.<X! C 5.a.0.9.i.M.;.^ @ & H R ",
"! U x , =.`.*X*X&XB.>.o.[ 1.L U U G P P E H D H U E E ! U Y ! 7XU U ! K U U <X! wX4X6XT U <XU U Y ! R U k O./ %.&X&Xl.) $ 8 T ! ",
"U Y z * e.{.=X=X&XB.x.0.@.3.W E Q H P U P E U U R Q T <X<XQ Q Q m Y T T U U 5X<XwXJ.R 5X4X! ! 5XT U J.A.i 2 / e.&X&Xx.*.1 r Y <X",
"! D.N u ~. X'.'.'.].&X]. XOXK.I H U H U U P U K R J.J.! Q Q H P P <XU U V ! yX<X5X! ! 8XJ.T R U H U I..Xe.] *.v.*X*X{.x.X.r K U ",
"5XU N u ~.w.} { +.z.{.).].#XK.U H U H U <XU U T T F.J.! <XU U M U <XU G <X5X! Y 7X7X7X4X5XJ.Q D c U I.$X].M.(.].*X*X=X`.;.j T T ",
"U H c 0 +.3 y -.-.M.&XB._.#X9XU H D H Q ! R 8XD.R eX5XU U P D n P H H H R T R ! T <X5X5X! R ! D G E I.%X-X*X*X*X=X=X*X^.+.r U 7X",
"U U c 0 +.| w.`.B.&X`.k.m.#X9XR U I G U T 5XeXY 4X! R U U P D D K H G K J U 6X7X7X<X5X7X! E U I H m S.%X;X*X*X X_._.^.+.@ - U ! ",
"Q ! N u c.]. X*X&X_.k.*.u.@X6XR U U H U J.6XJ.R J.! T 5XR T P D U U m m U 7X! ! U U 5X7XR ! R I H n S.>X;X*X Xt.X.X.X.:   6 H R ",
"<XR N t 7.`.&X*X/.../ *.M.@XG.<X5XQ ! R T ! 5XJ.J.J.6X6XF.! T R V n K Y ! Y K U H R 4XJ.D.Y P H m D S.%X-X&Xq.w / *.*._ > 7 H 5X",
"<XJ.x * / #.%.2. .@ : / 7.Z.L E R U U ! T T 7XR J.5XR J.J.! <X<XR T 4XJ.R U ! H U ! Z D.R ! U N U U S.$X`.&Xw.@.e.v.n.j.X.r U Q ",
"! <Xz O $ > : * o   o e 1.5.K G U T ! <XwX5XT D.F.eXY 4X5X4X7X<XT T R 6X8XT T U U ! 5XY Y ! ! T 5X! L.XXx.).&X&X&X&X`.k.' r H ,X",
"Q 7Xn O : 1 3 < +   . a C L 5XY ! <XR ! T T ! J.eX5X7X6X5X8X5X5X! T <X! J.J.T Q ! 7XJ.T 7XR R 4XJ.! I.XXl.l.`.&X&X].z.o.1 r K 3X",
"Y Y m = o.>.y.~.w.4 # , v R R T R R T P U 4XJ.5X7XT 5X5X4X5X6XeXJ.Y J.D.5XR <X<X5X<X! <X5XR J.5XF.J.W.XXx.B.].~.9.r.X.1 @ 7 U eX",
"D.4Xv , :.n.{.=X Xt.` ^ #.f.Y 7X5XY U E Q Y U R 5XeX7XwX7X5XJ.R 7X7XwX5X4XR ! 2X! T <X5XF.R <X8X5XR T.N.;.z.i.q.w.z.o.1 + 6 U 5X",
"Y J.x < e.i.u.u.u.M.e.r.v.s.D.5X5X! H F U ! 7X8X4XJ.5X8XwX6XJ.! 5X7X<X7XR D.R ! P ! R F.<X5X7X4XR U S.t.+.8.-.w.'.m.>.o.: 7 U R ",
"! 6Xx * i.#.w > > 8.`.&X-XOXK.5X! wXP E E ! 5XwXwX5X7X6X5X4X5X8X<X<XR 5XR ! <X! R 5XJ.8XuXR 7XeXJ.! T.XX'.]._.'.Z.q ' y.@.g J.5X",
"5X4Xz 5 ~.z.:.X./ 8.`.*X:X#X6XQ Q ! Q Y 7X! 5X! Q ! 5X5XyXyX5X<X<XR R 5X5X5X! U R 4XJ.! <XR R 6XD.J.W.$X).].c.m.i.` e.].9.g 5X! ",
"5X5Xx e ^.`.).M.c.B.B.].:X@XK D E ! 7XR 5X<X5XwX7X<X! ! wXuXR J.J.! 7X5X5XJ.<XU R 5X! 7X7X5X4X6XJ.R Q.XXl.r.o.;.v.r.B.].9.g R <X",
"H 7Xx y c.&X*X*X*X].r.x.-XOXJ F I <X5X<X8X7X7XwX7X<X2X! 5XeX8X5X8X7X8X6X7XY Y T R T U ! J.5X5X5X4X5XQ.XXh.o./ *.x.`.B.).%.g J.! ",
"! 5Xv q ,.`.*X*X&X_.*.:._.OXR D Q yX5X5X5X<X5X<X7X! rX7XeXJ.6X4XR Y 5XJ.5XY Y R R Y R R J.D.D.5X6X7XQ.oXl.:.[ *.x.&X{.v.X.g D.5X",
"F.5Xv t >.).*X`.h.o.=.,._.@XG.H <XuX6X4X6XJ.5XwXwX! 7X7XwX4XwX7X4XY J.! 5X5X7XR J.R J.4X7XR D.4XJ.4XdXoXk.*.r.(.].*X&Xx.} g R eX",
"5X5XN u y.B.`.).,./ ( :._.#XJ.U 7XpX8X5XeX0X7XwXwX5XwX<X<X! R R J.D.F.J.4X8X6X5X6X5X5X5X5XZ ! ! D.J.sX>X(.,.(.*X*X*X&X`.+.g R wX",
"! J.N u ^.).v.c.r.] #.8._.#XtXR Q ! 7X8XiX7X! 5X0XrXwXJ.J.5XR R F.4XD.G.J.5XJ.J.6X5X5X4XR Y 5X5X4XF.sX>X&XV.B.M.M.).`.].@.f R 6X",
"<X! B u ^.'.-.-.^.0.^.B.].#XK.U U U 5XeXwXeX5X! ! 0XrX5X5X! 4X4X4X5X6X5X4X4XY 6X8X<X4XJ.G.J.6X5XeXF.sX>X-X&Xb.o./ =.8.(. .p Y D.",
"U U v u m.e.1 | '._.].]. XOXW P R R 8X8XwXyXeXD.F.wXeX7XR 7X4X4XR 5X6X! J.R Y 5X5XR eX7X4X4XY D.6X5XQ.>X*X{.x./ * 3 } m.| 8 Y U ",
"H U x * +.*.-.a.'.w.z.e.t.Y.J.wXR R uXeXeXuX7X4XF.5X! 6X5X6XD.4XF.J.J.5X<X<XT J.R 6XeX7X8XK.Y J.J.! U.M.x.e.c.i.q.w.u.z.} f <XE ",
"P H s O ; ] r.M.w.9.z.;.6.Y.K.<X2X! 7XiX8X6X4X<X7XpX6X8X8X4XJ.8X5X7X7XwX7X! <XY J.! 5X4X4XD.R F.! 5Xd.p.o.^ -._.*X&X).j.^ a <X! ",
"<XH z % # 1 -.7.%./.].x.B.OXqX! ! <X7X5X5X7X5X6X8XeX5XJ.5X5X<XiX5X4X<X7X5X5X5X5X7X5XR 5XJ.5X5XT ! ! U J r * > #.~.~.8.=.> 8 R T ",
"J.U x , 2 *.v.].'.&XB.j._.#XqX<XT ! 2X<X<X5XF.8X8X7X5XJ.! J.6X6XJ.D.7XR R <X5X7X6XeX5X4XT <X4X5XwXH U ! x &   + , q 3 1 + p R <X",
"4XJ.N q o.x.{.*X*X&X`.x._.#XK.5X7X<XwX0X2XwX0XwX7X7XR R <XG.F.4X6XY R Y Y Y 4X5X4X8XR R R ! <XU <XP d.p.j =   . @ * : > + 6 7XeX",
"5X4XB t >.n.).B.t.w.'.`. XfXqX2XwX<X! <XrXwX5X7XeXeX6X! T 4X4X5XeX5X<XJ.R T 7X5X5XuXeX5X! ! ! J.! ! S.z.o.1 @ 0 @.$.@.X.> 8 R 5X",
"! 5XN < o.:.,.*.^ q ~.*X:X#XqX3XeX7XeXwXwX5X<X7XrX0X5X! U <X5X6X7X0XwX7X7X7XwX3XwXwX<X<X7XJ.2XQ R U T.|.>.( ` w. X X].x.} h ! R ",
"7XT z O @ 4 ] / X.a. X*X:X#XeX3X<XT 7XyXiXwXwX5X5X<X3X5XT 7XwX5X5X<XwXwX<XyXwX<XwX<XU R <XT ! T 5XU P.|.*.>.M.].*X*X X'.@.l 6X8X",
"! 5Xz O # #.i.i.^.&X=X*X:X#XqX! U T wXuXeX2XwX0XwX<XwX7X7X5XJ.! 3X3X5XwX<X<XwX<X7XqXD.6XeXU R U U H P.|.8.B.&X`.)./.@.#.` l wX<X",
"F.8XB , #._.*X*X*X*X=X=X:X@XG.<X5X! 7XyX7X7X7X5XwX0XQ <X<XR T Q yXwXwX<X<XQ 2X<X<X7X<X8XeX<X7X! I <XW.XXx.`.`.r.-.%.> } ` h 5X7X",
"R R B { m.&X*X*X&X{.'.].-X@XqX<XQ 7X7X<X<X! 7X7XrX<X<X2X! ! <XwXeXuXeXJ.5X2XrX7X! 0X5XeX5X5X6XK U Q E.oXB.{.B.-.{ { +.~.%.h 7X5X",
"R R B y 7.`.*X*X{.z.*.;._.@XqX,XE <X<X<X<XwX<X<X<X7XrXwX7X7XQ wXeXyX5X6X7X0XrX<XR 7XeX6XR ! ! P n T T.oX].&X{.'././.'.].%.h <X7X",
"D.6XC < ( h.`.*X'.*.~ ^ 5.tX! wXwXU 5X5X5X<XF.7X5XeX7X0XwXyX0XrXiXiX<XwX! wXwX<X<X<XeXuXwX5X,XQ H E A.9.9.z.n.`.*X=X&XB.{ a ! 6X",
"6X6XN * 2 :.V.=X/.' /  .C wX5X5X5X<X! Q 7X7XJ.! 5XyXwX0X0X7XrXwXwXrX2X<XR 7X<X! <XyX7X7X7X5XT T P 5X4.X.] *.k.`.*X*X&Xx.4 a T 7X",
"eXpXx % > *.v.].a.@.7.p.G.J.! 5X5X5X3XQ ! 6XeX8XrXyXrX<X2X! 3X! 7X3X0XrX0X! T ! <XyX<X! <X! U R Q ! f.6.*./ t.].*X*X`.l.^ f D.F.",
"eXtXN % # 1 -.7.@.~.`.m.g.6XwX<X<XU rX7X5X6XT 5X4X7XwXQ Q 5XwX2X2XwXyXwX1XU R 5XwX7X! ! E U H G H U D.4.t > ` t. X`.l.,.1 a 4X6X",
"pXaXU., > ] r.M.~.].V.l.N.Q.qXQ ! 2X! ! <XR <X5X! 5XR <XE U <XwXuX7X<XE Q T R 5X8X<XU P I ! ! U G ! ! Y k & o , | ..' ^ @ p J.8X",
"8XQ.Y.w ] k.`.*X*X&XV.l._.#XK.<X<X,XQ 4X5X<X5X4XR J.T P U T ! 7X<X! ! U Q Q U D.8X5XY H I 2X3XP U R A.4.h .   X + * : : + 8 5XuX",
"<XQ.}.w =.B.{.`._.^.].V.].OXG.U Q Q J.! <XU J.5XT ! 5XI U ! ! R T T ! K E wX<XT ! Y ! P U U H H U K f.t.^ @ @ > w w w ^ # a 5XwX",
"<XQ.Y.w =.h.j.>.} q ~.&X-X@XG.U T <X7X<XR H <XU ! <X! F P H P ! T U U m H E U P U U ! ! ! F c D H F P.|.;.~ > 2././.^.8.^ g 5X7X",
"<XQ.Z.* : / [ ( / 9.'.=X:X#X5XI Q ! <X<X! <X<XU H T U G H P U Y R V T <XR T Q H U 5XY E Q P F d d D P.|.*.=.e./.*X&XB.h.' h 7X7X",
"U Q.Z.+ @ } <.;.t.].*X*X:X#XK.U ! 5XJ.! <X7XT R ! ! P D m Q R P U U U E Y U E F ! ! U Q Q R H d d D E.|.;.x.].{.[._.o.o.^ h R T ",
"! sXZ.* ` ~.&X&X&X*X*X&X-X#XG.U 5XT T ! R 7X! U Q U U S m ! H H U P F n J W P I P P m U U K n D A H W.XXx.`.&Xv.z.~.> 4 4 h J.R ",
"T Q.}.} i.&X*X*X*X&X&XB.].#XG.T ! Y T Q Y U H U Q I G n D F F U U P G n H D F P F F G K K P b n D R R.oXn.`.B.-.9.^.+.u.@.h Y T ",
"! Q.}.} r.{.*X*X&XB.e.,.(.#XG.R E U U U U U D T Q ! D U m F P E U U U G U H G H U H P U K D D D U T sX$X].&X`.m.~.].^.'.2.h C ! ",
"7XL.U.q o.x.].*X].;./ ( p.W.! 7X! H R ! U H D D Q T T U Y Y ! E U U T R ! R ! U U U U H H U H D Q 4XT.Z.i.B.).c.u.w.q.c. .f V R ",
"! D.d.< ^ :.V.*X_.X.2 1 h ! Q J.5XF E 1XQ P H I E U U U ! T U R D U <XE H <X0XK Q U V U Y R Q H ! eX4.4 w >.h.o.> * @ o.3 p 5XrX"
};
